<mxfile host="Electron" modified="2024-04-17T20:22:50.988Z" agent="Mozilla/5.0 (Windows NT 10.0; Win64; x64) AppleWebKit/537.36 (KHTML, like Gecko) draw.io/24.0.4 Chrome/120.0.6099.109 Electron/28.1.0 Safari/537.36" etag="fVpbufeJgnqzPa9Yw7rn" version="24.0.4" type="device">
  <diagram name="PÃ¡gina-1" id="zpfHHxmGQyDbUnBRudEK">
    <mxGraphModel dx="933" dy="477" grid="1" gridSize="10" guides="1" tooltips="1" connect="1" arrows="1" fold="1" page="1" pageScale="1" pageWidth="827" pageHeight="1169" math="0" shadow="0">
      <root>
        <mxCell id="0" />
        <mxCell id="1" parent="0" />
        <mxCell id="FsGZO4-EiAuaFuLzNBgR-1" value="" style="shape=image;verticalLabelPosition=bottom;labelBackgroundColor=default;verticalAlign=top;aspect=fixed;imageAspect=0;image=data:image/png,iVBORw0KGgoAAAANSUhEUgAAAkkAAACQCAYAAAAcLv/6AAAAAXNSR0IArs4c6QAAAARnQU1BAACxjwv8YQUAAAAJcEhZcwAADsMAAA7DAcdvqGQAAJH8SURBVHhe7J15XBT1/8dfLEfcIJfcIIgoh7Kg4n3lUZZnpdmhpZYdWppf+3V4lF1+LctOK1MzM8v8dqil5a0RXrAcoqKIgnILC8LCLuzs6/fHLgLL7iyoldU8Hw8e5cx8Pp/3PZ+Z/cyMFUlCQkJCQkJCQkKiBTLjDRISEhISEhISEtIkSUJCQkJCQkLCJNIkSUJCQkJCQkLCBNIkSUJCQkJCQkLCBNIkSUJCQkJCQkLCBNIkSUJCQkJCQkLCBNIkSUJCQkJCQkLCBFbX9J4kdSFS9h1A+qU6OHVKxPCh0fC0Nj7oD0RXhbyTF1DrGYFufo7Ge1shVObh1IVquIZHIdil+bxQjZIz2SixCUJUmAdsmu2RkJCQkJCQ+HfTzjtJOpTuexm3dQlHr9H3YcajM3DvyB7o3GcJkjTGx/4x1JzchGeGdkNEdzn6zt2OWuMDWqFDwYbp6B3fA71nb0VNsz3CqRUYGytH4swvUaBrtqNd6FD4/bMYP3oS3vy93ninhISEhISExN+Udk2SdBe/xONTluKXAickPvEBvt+1C/97/0nIy1Nx4krjUVrUlBaisKIWrecdWlQVF6CkWmu8A0JtBYoKy1DTetdVtMeWYlifB/HZSQ1kANp2C0yGwDHj0MeeKNu1FftUjdsFnNv6M9IabkHimDEINFiivqoEhaU1MCuGthqlxZVomhPqUJ6xFz/v2Iqkc8atrs0WEhISEhISEjcBbDMNPPFKL9pZyeg5fh0LhKY9Qp2KdVRR8fFD7BfsQhsrEFa29IqfwQ1nG0iSNcff493d3GljBVrZuDFq7k7WkBQuH+Sbk3rQy86KgBVt3bty7Mu7WNys/0YaFJ/yhbd+5dmtjzDA2oquk76hqnGncIlfzZCzS8Jj/F+JUWMhj+8Pc6SVdQBn/GRooT3HFYNuoZXDUL57XqBQ9CuX3NGFbjZWhJUtO0TdzZVHrpAUWPD5fYyMvJuvfjyXA/3saGVlQ/e4x7glv56nV97BIHc7WsGKjp6BDOr6GH9UXZstJCQkJCQkJG4e2nEn6QqOHDmBBtijz5ix8G/WUmbvCHuhGAd3ZMJj/EJ8sukbfPxYD2gUn2Ph2weg0ZXi65dewHfnQ/Hwx99g43tPY5A3QF0JNj85Cf+35RK6zPoQmza+iXsDL2Lby1Mx//uK5oMDAGziHsFr80cgyNZ4DwBdBc6kncDZzHScURrdY5IFYtxd/eCoK8avPx5CLQDdpe3YfqweDv0mYnxgKTbNeQCv/KLGwBfW4KuPHkVE4Xd49tHlOK4l6krzkHvmeyx56mtoBj2ICd2dcSXtMyz64Bh8Eu7EnXFekMEaQQPuxf33D0OE9TXYoqXEEhISEhISEn81xrMms2jP8c0BtoTMiw9+X2e8txkNvFJ0gdm7n6Xc1or2Yz9ntVDMT293opVtCO985Xtmlmv1h15ewzudrGjT9T/8XaPfdGXzvfSQyejz0FaaG0W9w8SdJJLq4lNMyy6loasWCJdWcZSzFa1DHufuOoGXPhpBRysnjvgwn0L5Oo51tqJt3H/468nTPH06jStvd6aV3SCuOF/PnOX9aQtbyhcep4qket8chllb0XHiRpINzHgpgba4heO+aC4N22cLCQkJCQkJiZuKtt9JsnaDm7M1rKhCWVm18V4ANUhZNRW9Alzh7h+KyOHLoWggSIKyjpjy0su4I6AUPy2aiLiwWNz3aSZUhRdRWE/I/EMQani07JaAAHjLdKgqL0eD8RAWuKVjV/To4g074x0AZH5jMXGAE3SXfsEPv1/Ez9uSoXYagLvGB4DFBSjSEA1pb2FkVFd07RqHuTtqAGsZZLrGezwy+AQGwxGAtacnOsgIQRCMRmmk/bb4k9a9S0hISEhISLSRtk+S4Ib4hAjYUIPkbzcjt/n8QBDQULAez83/Epl+j2P72QrUnP4v+jf7Wcy593xsO5WNg2tmI9EmG1//30v4Dm5wsQJYXooSw8pm7eXLqNTJ4OHjDVO/qomiU0OlNjNxkfli7F2D4azLx44v/ovvk2rhNOgujPWVwcrFBc5WgO2A5ciu00Cj0UCjaUB99R7MDbP8bgMrK/1/dTq9ErprsMUWZdN+CQkJCQkJib+edkySbBD38OO41QOo2v0sbhv7NF5/9z0sf+EhDO46Fh/lXoFKCwCEpkSBr1duxonG+YpwDmuenI5Xvz8Hu669EOkpAwjI/IZiaKwdtFkb8OpHu3EseQteXv4jyqz8cNvYAbBvKQB0pUew+ZOPsfqXM6gl0HB+L9Z8vAY7z9QDQjbeHuYF146346MLpiZKMviMmYghLgJyN67GrhpnDL5rLDrKAJnfIAyMsYP26Gd4+bN9SD99Esd+XY/l7/6Ei60fSzNCBldXZ1hBi+NfvoQ33/oGadU17bYFDBMtCQkJCQkJiZsE49/fxBFYvOcVju3iSmsrEDA8uZXwLHcpz/PL+8PpYAXCypod4sdzRIQtXe76ijVCMTc9EMRbDG2sbgngqDePsobklcNvcUwnR1rppwq0sg/iiMW7afyAGkmq9zzJUGvDuI1/VvYc9v4lUpvD90d2oJ3XGK7OM9GYJIVSbpzckTZWVrT2vocbS5uOu5L8JseEOVHWTC+fO1fxnFbghfdupZO1K8evryBJak8v5wAHa7pP/kb/75xPOMbXhlYArdwm8Zuqa7OFhISEhISExM1Du964/fvvv+PSpUsANFBeykfxFR3sPQIQ5OtseFt1A6oK81Bc64zAMF84tbhP1YArhXkoqCJc/UMR4Nbs9yehBiV5l1BebwfPwBB0dLb8E9cfgq4Wpfn5uFwrg6OXPwJ9GvWyjK6mGLn5Ssi8OyHU2x6ydtpi0qRJzQ+QkJCQkJCQ+Itp1yTpnnvuwZYtW4w3S9wA2uEGCQkJCQkJiT+Bdk2SJCQkJCQkJCT+LbRj4baEhISEhISExL8HaZIkISEhISEhIWECaZIkISEhISEhIWECaZIkISEhISEhIWGCf/kkSYuayhpojTdLSEhISEhI/Otp3yRJV4X803moNPVC6z+EeiS/NBT9n9tnvKPNCAWHsHHDfuS1kllA9ru3oevIN5GqNt5nCR0qL5zAmdJ64x2Athznsi6g0uKbuv+JCCg4tBEb9uehlbn/ROp/X4JhA1/Egb/JB/Hqk1/C0P7PGW9uG0IBDm3cgP2tA/xfw9/N3zeeevy+ZBgGvngAGtGah1bHSvyb+aPr9R/d/59DuyZJQu4nmJIwEStP/ln3XoiqwhycuVRpvKPN1CZ9jPnzP8Ahoy50+V/g+VXWWLDuRfQ2/v6JRVTYv3gEej64BgVGk6Hyrx9B71FLcaiu5fb2UH9kBe6f+QlO/Flmvlbqj2DF/TPxyVVBa5H08XzM/+AQrt1j1w+rCnEm+yKUFl9uUY8jK+7HzE9O/KV3E1lViJwzl4w3m8CEvLVJ+Hj+fHxgHOD/ItrubzFM2PZvA1FVeAbZF5WgSM3T0/JYiX8zf3S9bkv/N3/etWuSBFCfWCazSwe1sgiFpW37+UpbXYZyVfMZRj2qSopQprI05xQfR6dWori4Eo33eFwmbURx6RY84Gl0nHU0Hl/3CR7pZtdyRyPaGpSVNPXTEhcMnzQarr//D99faqaDrgw/fXcAzqMn4VYnw7b6KpQUlcGcWtqaMpRUthxFezEFO3elodiojU6tRFFhKWpMKF5fVYyiCjVEb2Dp1FAWF8NoOACAoCpHUbESanMdmLKH9iJSdu5C2lVBXTBpYzFKtzyAFua2YAOTfTdiqe1VtKgpK4bSzOWxadtpcTFlJ3alFbe+0hFUKC8qhtKUQeqrUFxUYd5WV9GiuqwczcO8vqoERWWq1uMZ0WZ5XSZhY3EpthgHuDmuWy/x/BNFUKGs2Hz/rWqCmKwW/G2RVrlgwraNiMpRj6riIlSY3NcWLNU9LWrKSkzmLLQ1KCtWtrojZLLmmTn2KjdCR0u5Kpbn7cRU3QQMfi0qRKmpImmMJXnrq1BSWt0U5zo1KkrMx6+gKkOxuRqsrUZZuarFPvO1wIy926Obof/S6qZjdeoKlLSQz0y9FrNvG84VTXlsqn9j3cznneka+Bdg/J0SMbRnl7GvYzyXpDe02K5OfoMjI7zpHdyFnX3d6RU3g1/lalscQ5LUJHHRkDu4cOWTjHOV0Tb6OR7RkJVH3uWkGD/6derMAK8A9nv6O+ZpSVLNHY8E0uv+70hL4wgl3L1kFMO8/RgWHsCOnW7l67+rqUlaxIG9/8M9aoMMlUf5wX1y+vkEMSLUmx2Ch/CZ7y9Qe1W+O7n408W8PTqMwd7O9Or5NH8sNPEtONWvfCzEiUPeydW3JSmUrOO4DmF8ck8dyUoeeXcSY/z82KlzAL0C+vHp7/KoJalJWsQhdy7mp4tvZ3RYML2dvdjz6R9ZKAgs/vxehns50drGhT6BQQy/5zNeqk3mGyMj6O0dzC6dfenuFccZXxnG1ebwyxlx9PMJYXhgR3aatI6tP10nsGT3Eo4K86ZfWDgDOnbira//TjWv3R5C8ee8N9yLTtY2dPEJZFD4PfzsUh2TFg1k7//s0fctYgOxvvWItDVCKN7B5wYFsINvCINCEjnj8dvY0ftBfl9HUm3GdkIxP783nF5O1rRx8WFgUDjv+ewSBVby6Af3Ue7nw6CIUHp3COaQZ77nBb2xmfPlDMb5+TAkPJAdO03iutbG1vv3joVc+WQcXWW2jH7uCFl5hO9OiqGfXyd2DvBiQL+n+Z0+yKne8QgDve7XN26vvJokLhrYm//Zo6by2xmM7fcCD9Q1SqJm0uKBjHtiG2tugF6i+WcOzW9cOHgsF616niO7dWJYgDvdu07h6iyNYb+pmiAmqyV/7+OziQO48JChf2r426IBTHx2ryEmTeTCq9u52pRtRW1GanO+5Iw4P/qEhDOwYydOWpdnGNOA8lvOiO3HF5ocQnXSYg6Me4LbasTqnoZJi4bwzsWfcvHt0QwL9qazV08+/WMh9V4RWLzjOQ4K6EDfkCCGJM7g47d1pPeD37POEH9NNU/8WF6vjqR4rlrM82ZY8J35ukmSaia/MZIR3t4M7tKZvu5ejJvxFU2HZxvk/WQhb4vpzGBPd3Ya/yFTMzfwkf5dGNrRhR1iH+E3htzV/LaQg8cu4qrnR7JbpzAGuLuz65TV1Ie33o93LFzJJ+NcKbON5nP6E57ZWmDa3m3XrdFGnyy8jTGdg+np3onjP0xl5oZH2L9LKDu6dGDsI980i7Omei1u37acK4zzuGX/rXRbc9x0TTNXA1to+udxQyZJmowfufHQJX0R0pzm8kEu7LYgucUxJEn1Dj4SYE+H4NF867dc5p69xBrVPj7dpSNHrjxBFUntpU2cEuzP+7dUtJokiY1zZfsMBnuN4MqsOpICK1K3cHuG5uoJ6Ls6klRx75wudO/9In+rEEjWMeu92+jtOZZrCgSDfLfQa8Bz3FWsJVWH+XwPR8YtVrClxiSp5oGnOtNp4FvM0VJfjNaOYYcu83hIQ6r2Pc0uHUdy5QkVSS0vbZrCYP/7uaVCf1IMuMWLA57bRf0wz7OHYxwXKxpIbR1LNtzNDkEz+GNJJa/UaUlNBn/ceIiX9Irz9PJBdOm2gMkaUnPgaUb43G34WK+K+WfzqDIW9cp2zgj24oiVWawjKVSkcsv2DGquyx5a1pVs4N0dgjjjxxJWXqmjtpm/6ihuA/G+LbRtQQ13zgql+6BlzKgjtUW/8j89XWjtaThpithOW1fCDXd3YNCMH1lSeYV1WlK1dw67uPfmi79VUCBZl/Ueb/P25Ng1BaTmAJ+O8OHdG0spkFTln2VeK2Mb/GvvwODRb/G33FyevVTKfU93YceRK6lX5xI3TQmm//1bqDdFs0lSO+WlegcfCfTi/d/VUcj/kCNcg/noToNQ6r2cHd6Bd35WxOoboJdY/plFvYOPBNjSMWoGvz2vIRvO8ZM7vOkxbh2LBNM1oVRMVkv+rvuBUzsGcMZPjRMTNX+eGdA0KTCTC7UmbCsaC9TwwNMR9Ll7I/Wpl8+zxkYT8vnhCFcGP7rTkJNq7p0dzg53fsaiakt1L4C3eA3gc7uKqaWKh5/vQce4xVQ0kKzZyVmh7hy0LIN11LLo1/+wp4s1PQ06tqh5Fo69bh0t5aqFPG+BBd+J1k1qmPHjRh7SJw41p5dzkEs3LkhunHA10SZ5B77IfaUChcL1nODtTM+Ye7k6S0WqM/hKbydGPXuYmkaZbB0ZNeNb6sP7E97h7cFx64qu+tHeIZij3/qNublnealGJVILzNm77bo12mjgi/tYKggsXD+B3s6ejLl3NfXiv8LeTlF89rDGIF9TvRa3b1vOFUbn9hb9m9bNZE0TqYF/Be38uc00drFjcd+AAFjXlCDvogDfIFeUFRYZH2bADgOf+xjz+ndCp84BsDn6P2wr7Yk7htjgYnY2cmqi0b9HLZL3p7e6NWx+HA1++2Enrgx+CA9F2QOQoYP8LtwRa/RTmiYJ3/xQjAGPzUP/DjIA9oia8Rhut9mP7Xur9cdYuWDUvCUY3tEacIzD8P4+yD+bY+IW8S3oM2UCglK+w5YcAdCVYvt3v8F/wmT0ttPg6P+2obTnHRhicxHZ2Tmoie6PHrXJ2J+u18rKZRTmLRkO/TDD0d8nH2dz6gFrezjb28LKyhaObm5wsbcG7GIx9r4BCLCuQUneRQi+QXAtK0SRDpC5ucO17gR2/XwClTpHBHUOhqORpJrffsDOK4Px0ENRsAcg6yDHXXfEwu667GENe2d72FpZwdbRDW4u9mj5WWLLNjDfdxvaNlKfgp/3lKP/1OmItQesfUfglcV3w6cxskVsZ23vDHtbK1jZOsLNzQX21hokffMDigc8hnn9O0AGwD5qBh673Qb7t+8FZG5wd63DiV0/40SlDo5BnRFsbOxG7AbiuY/noX+nTujslYX/bStFzzuGwOZiNrJzahDdvwdqk/fDWJ32yduyqSxgAiYNvIKfv90PFQB10hb8VDUUk8d2QPIN0Mt8/lnAygV3Ln4Hd4faATZhmHzvAGiT9iD5alI1rwleSBOT1ZK/LWAuFxxa2dZCLEAGN3dX1J3YhZ9PVELnGITOxkaTBWDCpIG48vO32K93CLb8VIWhk8eiw3FLdc8KLqPmYcnwjrCGI+KG94dP/lnk1AP1KT9jT3l/TJ0eC3tYw3fEK1h8t4/JtRPix94AHduSq2bzvP2YrZuwQ+zY+zAgwBo1JXm4KPgiyLUMhUXGvwm1Ud65CzHEWwZZx8EY2E2H4InP46EoR+CWLujb0xsFueev/gxn5XInFr9zN/ThPRn3DtAiaU/y1RHtBj6Hj+f1R6dOnRFgc1SkFpizd1t102PlMgpzFw6Bt0yGjoMHopsuGBOffwh68fuip3cBcs+b/g3LrH3bcq4wOrc3rjjRY1o3kzVNpAb+FZjKq3ajK/gJL4zqAv/wPrh94hS88utl6GhGIys7ePt6Xx1YKC5GWe0RvDd1MiZPnozJkx/E6ovhiA11Mzrpio1Tj5ISJdw7+kJ0DXZ9AQrLXeHv79y0zcYPfp5alJc1W1pm1fQ/tna20GmNfy3VY9dzMu7qnIbvtmSjvmQbvksKwcR7E2AHAcXFZag98h6mTjbo9eBqXAyPRahbk1ZNw9jCzlYHM8MAugL89MIodPEPR5/bJ2LKK7/iso7QAbDpMR+r3+qP0y/0RaeoMXjxx/Otik99SQmU7h3ha2ycG2yPlrTNBqb7bmNbANCWoOSyMzr6ulzdZGVj3RTYIrZrTT0KCsvh6u+PJovYwM/PE9ryMsCmB+avfgv9T7+Avp2iMObFH3He2NgGrOy84ettkEIoRnFZLY68N9UQ45Px4OqLCI8NhbE67ZPXCFlHjJs0FLU7v8N+lRq/bdmB2uGTcYf3jdHLfP5ZQgZbO9ur/7L39oarStm0nqhFTbAgqyV/W8BsLrTCghywQY/5q/FW/9N4oW8nRI15ET+2MpoMHcdNwtDanfhuvwrq37ZgR+1wTL7Du41172pywMrWDrY6LQQA2pISXHbuiCYTWMHG2rQFxI+9ETq2MVdN5vm1Ybpu6lDw0wsY1cUf4X1ux8Qpr+DXyzq0Ds/2ymsHO1srWDWT387OFjqhmfwyWzSFtz28vV2hUiqbjvf2RWMpEK8F5uzdVt2aaBLfDrZWVs1sZgc7Wx2ai2+MSfu25VxhdG5viTndTHA9NfAPwLQ+7UKDva89iY/qH8X+vPM4mX4UH9/j3+aOZS5ucHG6Fa//noa0NMOf4jh+mC+HTYsjxcaxhYuLPaorK1st/mqBrStcHWpQoWzmHF0ZLlfawauje/Mj24ZND9x7Vzdkfb8Zh374DsmdJ2JSjA0AGVzcXOB06+v4vVGntDQojv+A+fKWWplC1qI8Apq9r+HJj+rx6P48nD+ZjqMf3wP/qwZ2gfzRz5B8Lgubp9RhzUNzsKG4ZTjZurjAvrqy9asbrtcexoK24Hps0I621k5wdlRBWdF0S6b5N5vFbWesgC1cXR1QU6FsNtHUoexyJey8OgIAXOSP4rPkc8jaPAV1ax7CnA3FzdqbQeYCNxcn3Pr6700xnqbA8R/mw1id9slrjAzeYyZheP1ObPn5F2zZUY/b7r0dHW6IXmL51waaPexRr6xAjbMHPG5pfkAjFmS14G9ABmurBjQ0XN0LXbP9ZnOhlW0tyAEALnI8+lkyzmVtxpS6NXhozoam5gZk3mMwaXg9dm75Gb9s2YH62+7F7R3aU/daY+3kDEeVEk0mIMx9plz82BuhYzty1SLivhNFsxevPfkR6h/dj7zzJ5F+9GPc05Q4zbiR8jbRJGU9lBU1cPbwaLH/KpZqgSl7t1m3P5DrPVfAjG6t8s5SDfzzaf/QVKPiwilkZWUhK+skzhRdQaXyCmw7BsHfHtBVHMHu4+VtnvXZ9RqCPjYH8fW3zd6lUF+FytqWxwGCyDh26D2oN4QDW7DNMEGoStuIr5JqWnZh1xe39pfh0NebcUHQ93nxf+uxUzsME4Y1XZm2HRt0m3wPup/+AnNWHka3uyahmw0A2KHXkD6wOfg1vm32spL6qkq0UssUDo64paYclw3xKFQqccW2I4L0iuPI7uMoNxhYfeYY0soEwD4UwyYPQ0hDNaqM3vtk13sQegsHsGVbsd5eVWnY+FUSaq7bHg5wvKUG5Y2CtuB6bNCOtrbx6Bsvw+FtP6FYB6AmBe+//YP+/y3YDgAcHG9BTfllw0nCDn1v7Q/Zoa+xWW8QCBf/h/U7tRg2YRigPoNjaWUQYI/QYZMxLKQB1cbGNoVdLwzpY4ODX3/b7N019ahqHeTtlNcEHW7H5FE6bF/8HLZxNO4d4XKD9BLLPwuwEjvefwdHq/VXid9tPgRZ/1vR1+SDpRZkteBv2AQhyLcGWWlnUA+g5tg7WPF96VU5zeZCK9takANqnDmWBn3qDcPkYSFoqK4yjNKcDrh98ijoti/Gc9uI0feOgEu76l5rbOP7Il52GNt+0utQk/I+3v7BoE+7jr0ROrYjVy1hwXeiCJVQXrFFxyB/2EOHiiO7cbx54lzlBsprgJU78P47R6EP7++w+ZAM/W/ta3yYHtFaYMbebdbtD+S6zxVmdGuVdxZqoO4itr3yJJZ8d178hsgNpF2TJKtbXOAsO4X3x3VHTEwMYmJiIH9iB4bPnIngX55AYr/+iB+4GMUhEXCwMTUrt4Wt3S2wa7ZL5nMvlr87GrkLeiKq3wiMGtYHXTsPwMu/6y99bG1tYWdnA8BRZBwZgqYtw9L43/FYzwQMHZYA+cQ1OC+TAba2sLvFTn91JvPDg8vfwaicZ5EYMxC3DuqOxP+7iLs/WYkpvjKT8tnY2sLW1sasoaw7T8KUPpdxprgnpkzqbLhVLoPPvcvx7uhcLOgZhX4jRmFYn67oPOBl/K5BS5kAADawtbWFrY1+FLs+Y3C7+w48M3AwBj60BuXDZmJm8C94IrEf+scPxOLiEEQ42MAGQN3pNZjcoxv63joUPYevRN2Dc3FvcEtpZUHTsGxpPH5/rCcShg5Dgnwi1pyXQXa99rDrgzG3u2PHMwMxeOBDWHNRB1tbO9xip/eJqA1E+7bUthkyX0xZ8iKif3sCiYlD0SfxUaT0m4gER719HIebtx1ghz5jbof7jmcwcPBAPLSmAB0fXI53RuXg2cQYDLx1ELon/h8u3v0JVk7xBepOY83kHujW91YM7TkcK+sexNx7g40EMuFfmQ/uXf4uRucuQM+ofhgxahj6dO2MAS//rl9/YmsLWzv9jKF98l6ErpUd3TDqvrFwPpcL54n3Y4gjAMjgd916ieWfBaycEOa0D9N69sagXn0wN30A3nhtCjrKYCIOLMhqwd+wicW0uXei/K3hkPdPRN8nTmLQPXI4GuQ0mwutbGshFlCH02smo0e3vrh1aE8MX1mHB+fe26RzM9xG3YexzueQ6zwR9+sd0oa615hHBmxsYWtrCxsZIPOdgiUvRuO3JxKROLQPEh9NQb+JCVd1bB5/4sdasHWbdLSUq8b+FampFnzXKq+a103H4Zg5Mxi/PJGIfv3jMXBxMUIiHNA6PNsrr7V+DDubq/c7bOz08jdi5RQGp33T0LP3IPTqMxfpA97Aa1P0d+Ja+VG0Fpixd5t1M2Eja33c2NlclR52trZoFL+FfMZtm9v3Gs4VaNG/Gd1a5d1F2IvVQO0lJH2zAZsO5rX/FSTXiBVb3qu+ZrQVuUjPLod7twSEu7cKf4voai7iRMZ5VFl7ITymK/ydTPchPo4axVkKnK1yRef4aPiZW3cgVOFCxgnkq90Q0SMGfsZrEW8YOtRcPIGM81Ww9gpHTFd/mFGrFbqq80jJKMQt4XJ093cEtBXITc9GuXs3JIS7tygw9eVnkHayBLKAWMjD3Fut5WpEXZwFxdkquHaOR3Rz41yPPXRVOJ+SgcJbwiHv7t9q0fj12KA9bXXVeUjPKIRdeDyifY1+xxGxHaBD1fkUZBTegnB5d/g7AoCAqgsZOJGvhltED8Q0N0h9Oc6knUSJLACx8jC4mzO2KXQ1uHgiA+errOEVHoOu/k6tTxS4FnnbyvXrJZ5/JtDsxKOdH0Tte3n4pOcZpF2yRbg8ug1rgkRkteRv6KC6mIn0S7YIT4hCRxN3rEznginbislRj/IzaThZIkNArBxh5owmQlvrXmt0qM5LR0ahHcLjo9HKBC2wdOyN0LHtuSqOZd+ZR4uK3HRkl7ujW0I4xMPzxsir2fkoOj9Yi/fyPkHPM2m4ZBsOebSFtbEQqwXm7N0e3f5ArudcYVY3E3knWgP/XG7YJElCQkKiFVcnSRfx5QSLpw4Jib8VVydJF7+EFN7/TP7KCZqEhMQ/HWtvdOs3EDG+UqmR+Odh7d0N/QbGQArvfy7SnSQJCQkJCQkJCRNI818JCQkJCQkJCRNIkyQJCQkJCQkJCRNIk6R/JPWorqhq9VkXCQkJCYm/IfXVqKg2+3Y0iT+Qf9kkSYWiU+nIOFfe6mV82opcZKafRtG1vlHsZqHqAJb074TwfvPxQ9kf8MIxbTly0lJw/Phxw18KTv7djKY9iffG98TjPxi+OaRVIjcjBcdTUqA4kYOS2htrN+3J9zC+5+NoHO7mQAtlbgZSjqcgRXECOSW1bXtpX1sxtvFfjgqnfl6P79Mq26VnTcFJZOZW/GnvZDGmZvsc9BrzNrL+KgGMUJ36Geu/T0OlJSOqCnHqVAFUxtuhQ1VeFs6U/B0v4VQoPHUKBa2Vgq4qD1lnSow3Xzst8kcLxTvjEB3QBTN/bPa5KIk/B+Mv3v6jubKe4x2taOV+Lzc3/5h13W/8T5QtrRwS+Vpmq29TtxGB+VsWcMLoSXzz97/oc8UUWPzZnfTs+zpPXqsaogi89OFwOshktLa21v/ZOLD3K5nGB7YZ9W//5ZRHP+MprfGeP5DSzzjatRufTdaQFFi4ahSd3cPZs18/9o4NoKt7FKd+nt36K+XXSOlno+na7dm/7CvWphAKV3GUszvDe/Zjv96xDHB1Z9TUz5l945RuZuObgLqfODPYm7d9kMO2hpqQt4bjvGSU+Uzjj40fprfAjY1nDZPmR7LDxI2sNN71l1DHn2YG0/u2D5hjQT/1nicY4jCcHxYJLbYLeat5p5cv79lYRKp/43+nPMrPboyxbjzG8qn38IkQBw7/sIgttBLyuPpOL/res7H51uujVf5c4edjXNh32dk2x6/EjeHfdSfplhAE+1mDtYW4VHr1PefIW/8aPjutQ/B9C/F4jA0ADSqLC1BSbf7yTVdbgdLK5vej6nB4y2f48dcslLd435oOamUxymrM9aWBsqgQZaob8ZJ1NQ4fTEHgrSMR0eptrBooSytN/wSnU6FCqW5xha1RFqGwTGX06vd6pB4/Abtxn+OyVgutVgttQy2OLIy5ur+ypARV5lQVVCgrKkOTqlqc/OUrbL+gRQexT5IZ06qfRsRsWY+qklJUawFN2jGcsI6BPNrOoFMmbrntDexPSsKRjGxsf5j4+uX3cKiFsXRQVSihbmkkFBWakgNAfRVKSquhhQZpx07AOkaO6Pa8GE+jRGmlSW+Z8U0TOnUFypo7ob4KpRUt7xTVpx5H5i234Y39SUg6koHs7Q+DX7+M91oqDZ2qAsqWSl+DjduITg1laWWru7yAmRitLDZjBwGqsqKWMtqPxuq8Uux4MrzZy1bFdFFix9LXoJCPREzNGZzKN3FMqzi8xng2lze6y0hVFKBzvLzZB2gtoYNaWYoWpakZpvxZWWzGBq30s8fo1Xko3fEkwpvVOFPxaBsRiTDk49y55kpVY++y/+JQ5DwsmeQL7clf8NX2C9AaG6u+EiUlVddw986E3wHz9m1B6/rYSj7bCESGAfnnzrWQrXrvMvz3UCTmLZlk2CJiU8DkWHpE8kebj/wiR4R29jP7smCJPwjjWdM/GiGfK4faETZd+Mxvhhl6zT4+1cWGMvdR/Cj3CrM2zObQUGdaW4FWNu6MeXAtT2lIarP54YRIRj7wJtc8PZABt1jRytaXw99OJxuO8bWhIexgb0VY2bNDQDDj5u2icPkgl43vQldrK1o5dOKY5+ZzfNcunLAql1pqeWnbc7w1xIkyK9DK1ovD3z5xfXcvGk5waU8f3vttjf7fdbs5v88kvvbZAo6MCmVAB0f6j/6QJ7UkWcedc3vzrkXLOCXSmTKnsVxXQWrObeH8YZ3o2TGUoT5u9E2czS15hmuXhgy+FO/AXq9mtbqaqTuxhtN6eNPDP5B+YSP44qIHGP/ABsNeFTPXzWRikC+DI0LYMSCRz/50lO+NCaO3sw2tnb0ZGBTJ6ZsrjHo1xkQ/OytIanhuy3wO6+TJjqGh9HHzZeLsLWwUW5XxGafF+ehlCx3MhyZE0yHxdZ7WGmyW4Mg+b5w26CTwwtuDaR/wCHeoybqdc9n7rkVcNiWSzjInjtUbiVvmD2Mnz44MDfWhm28iZ2/JM7RXMeOzaYzz8aB/oB9DBz/ECdEOTHy9sX/z1O2ezz6TXuNnC0YyKjSAHRz9OfrDk1fbifmmbvd89pm8jJ8/P5LRoX50d+7MhzefZvK7U5jQOZBejh7s/+pRqkmSDTyxNIGOfd7Q24CkcOFtDrYP4CN6pTm3911ctGwKI51ldBq7jhXXY2Mx1Ls5v89dXPLBXA6NDGGglwv9R6ygQk2zMdpwYSufH9WFfgHhDPV2Z/DIN/h7tb47VeY6zkwMom9wBEM6BjDx2Z0kybpf57Hn0KU82kCL8UKS6iMvUu57G1ed+o5TfTpyWotbSSbi0Fw8V2/lE/LhfF1hyGxtDj+aEMMHNpSSlvKmbhsf9g/gzJ/1XjOPmrvn9+FdSz7g3KGRDAn0oov/CK7QG9GMPxt4YevzHNXFjwHhofR2D+bIN36n3owm9NtZQdb9ynk9h3Kp3oii8Uj1z5wR4MLxXzTdA9NmLWM/t0g+vb+K2e+NYZi3M22snekdGMTI6ZtJ1vHEmmns4a3PnbARL3LRA/FXbSWGWb+L2tdcfdSakU/Nn2cE0GX8F0139rRZXNbPjZFP72eNmE3NjmWQ31L+KDdwgudAvpVrKaEkbjT/rkkS67j1IR/KrNw4+RsVSS3PvT+crjI7xj6XxLzvHmKorTW9+z/Jdzes44JB7pRZh/LJPWp9kLrKaOvkRPfwWzltUm96ykDbhJfJhgx+OW84g6xBm/DRfPr/FvGTA5nccJcvZVa3MGToQ5w1KYGeMhAyLz7wnYqs/B8f6CijTdhE/nfjN/xs6RNc/F1xy9u4Dal8ZaA/fby96d3szydsGr8xMZ/Qnv4vB3QcwzWGW9wNGUuY4OjG0BFLuL9UoPrA04xwGMJ38gSyQcFFcQ508e/L2V+nMye3gNXVB7iguwfjn/6JlxpIqo5xYbw9I+Yd0g9QsZ7jXP057X8lVCqVVCorWaMhqTrEBbEe7PX8QZYLpDJpMfu62jBszj6SZOWu2Yz07M8lyUqS5JX077g1XUVNxTY+EtKBEz8vpLKymuqWd+ZbYbqfOlYfWMDuHvF8+qdL1Iu9kPH2EZx3SEPW7OczUe7s+dwBg2xL2N/NhgEzd+gnDMovOMHNnzN+MpwEG07yzcGuDJj6PZVsoGJRHB1c/Nl39tdMz8llQXU1DyzoTo/4p/mT3kg8tjCe9hHzqB/uGUa59+RzB8opUMmkJf3pZhPAmTssnegamLEkgY5uoRyxZD9LBTUPPB1BhyHvME8gKeobQ1v3UI586SAvC9X8fqovXYK6cPCj3/J8QwPTF8vpEL+E6Q0kqeQXE9zoP+Mn6rVu4Mk3B9M1YCq/V5INikWMc3Chf9/Z/Do9h7kF1ddnYxEaMl5igr0TA29dzP2lArXnVnCQUwgf3602HaN1yVyY4M2EeTtYoCVZupZj3fw4fXsdWbmLsyM92X9JMpUkeSWd321NJ9lAxaIedB29mqWkuC7UXxC9e6sPExYfo1p7kq/2dmS//zb9zGE6Dk3HsyZ5Abu5jeW6ckPjK5t4j0c45+xTW8ybhsyXmeAygquMfrJqRUMGX0qwp1PgrVy8v5SC9hxXDHJiyOO79btN+LMueSETvBM4b0cB9WYcSze/6dSb0ZR+dWxQLGIP19FcrTeiSDzqJ4PL+ztSvjhdf+EnFHPTZH8GTN7EYoEUNBXc9kgIO0z8nIXKSlarBaoOLWCsRy8+f9CQO4v70tUmTG8rMcz53ZJ9ReqjKflILXOW96ejfLEhjwQWb5pM/4DJ3FQsiNpUbKy25I82exn7uk/gl4aLAYk/j3/ZJKmBmS8n0BZ2HLTiPLVXfuVjYda0DniAWwpTuSTejlaOA/jSgUym7v2cTyQ4U+Y0iG+d1lJzcC4jbKxoHXQfvykQKOSv5FA70G7QCpKk+tdZDLS2ZtCsX6km2aBYzDhbK96S8BLTNCS1Z7msry2t7AbznQsCtefeZH9bK9p0upvvJxXy+lZuCCzau4IP9ozg4FeSabiPxIr14+jiOpTvGC5HNMkL2M31Tq6tIFm+lmOcndl/Wabh7pXA/FWj6B7+JPdcXa9Vxx+metN5ov63ds3+pxhu60zvwEAGBgYyMCicY94/y6INE+gZOIPbGhNYc5jPRrlx7LpyUsjnqlHuDJ+9l82XgZGkcOEdDnbqzdfasibBXD+N25/c07S97gdO9XbmxI3VLF0/gR4tZEvmgm7OHLlKv65Ac/BpdraL4OQ3PuEnH7zOOSPD6Bk9k1vyBZLlXDvGmc79l7FxqZqQv4qj3MP5ZJORWPfDVHo7T+TG6lKun+DBwBnbDFfkBps7j7R8omMF149zoevQdwxXjxomL+hG1zvXssKib4zbqrljZgDtus7jgRqS1PLka73pNOAt5mpJag7y6c52jJj8Bj/55AO+PmckwzyjOXNLPgWS5WvH0Nm5P5c1KX1dNhZDuWECXd2H8d1sQwzU/cCp3u68d7PKZIwWrxtHj4ApXJeexbSk7fx07kB29BnLNRcaDDaazb3GgcZyrh3jxtgXjrFBVBeVfoyv72VA2AxuryBJFb+d4knfh7bqJ5Tm4tBkPAssXjWSLvLFTDOYUnP4WUYZJk2lYnlDUvnFeLq3ZS2bcgMnuLpz2LvZhomcPjbc791MmvRnMdeN82DAlHVMz0pj0vZPOXdgR/qMXcMLDeb1K187hm6xL/BYg6V41P/7x2k+9HrgO9aRrEtawOgOg7mi0TbCBb4z2Im9XztlkLmUGyZ4tsydZrYyT6Msrf1uyb6i9bGVfHrqfpxGH68H+J1eKS6I7sDBK05RK2ZTQWwsoW35o0nlskFB7Hbf55bvzkrcUP5da5Jgg5DwYNxipUPxpXyc/ux1fHnBEQOfWYgxV37BL5n1YO1veHlIHPpOeAH7nMfhpW/WY06kFUoU6cgTbNH7ySW4y1+GhuzTyBGs0TGqOwABl9JOoERni65xsbCFgPzde5DVYIP4e+5HjB2AugycyBFgHdQDcj8ZrEMm4amp3eCQtwVPDYpC36e2osjoiRGdMgdHk37Db781+0v6Hen5xk+T6VB+7jCOlQVj3LiecAIA1CMzJQs2t07H1Ej9r9jVWSdRENIdsS6AJiMVWbYjMOuRGMNXn1U4tOsIHAffjn5XP1qowuXLdfDw8QGgQ1FqOoqi5uKX8xdx8eJFXMzPwdbZgTi+9zDYfySGGBZO6IqP4Fh+GOLkrkD1Qew64oDBo/q2+vhtfXoast1jEdepDb+ym+tHdQi7jjhi8O39mrarLuNynQd8fBqQtPs3oLlsJcdwPD8IcXEekEGH4tR0XOrgCdl5BdLPXoHfpE9x5Mhq3BUkAzQZSM2yxYhZjyDGsMZLdWgXjjgOxu1NRoLq8mXUefjApyEJ+uGGGNaQ6FBy7Djyg+IQ52Eh1eozkZJlg1unT4XeXdXIOlmAkO6xcLHkG+O2QiGyspWInTId/ZwAQI2sE7nwiIqBvzWgK05F+qUO8JSdhyL9LK74TcKnR45g9V1BkEGDjNQs2I6YhUealL4OG4tRjxOpWbAe+jAe7KKPAZ2yAIW1PvDzszERo7U4sPMg6rQpWPnwNDyx8BMcko3H6oNfYXqICgd3HYHD4FHoaxxoBj/GyLvBRlQXa6DmAF5f/D0Q7oL0j9/AG2+8g4PFtlCeOYUCQSQOTcZzAxSpp+AYIzesEdSh7FgKLobFQe6qxhGxvEE9MlKyYB0bb3EtW/2JVGRZD8XDD3bRr1fRKVFQWAsfPz/AlD9rD2DnwTpoU1bi4WlPYOEnhyAbvxoHv5qOEJU5/Qz9xMjRzcZCPAIAbBEREYq6C+dQWJ+Lz5asA2a8ise6GmxTn460bHfExnXSy6w+gr2H2SJ3io8cQ35YHOSujWOYotqM3y3bV6w+tpLPgG1EBELrLuBcYT1yP1uCdZiBVx/rCmsxm8rExlK3KX+Uv23Gd0XBGDgwAt7tWu8mcb2I17B/ILd0CoO/tYDiM19h2cpD0ETMwMuzIsGCiyjWWcN/xjZUa7VQVxbg5P4vseiOUNihHorULGitQ9GnfyisIeBiagaKdXaIie8OQIP09NMQrIMRG+sBGQRcvFgMWtnBP9gf1qhH1ifvY1s5YR+TgO52AKyDMemzFGT+uhTDvaqh+PRD/NjikX0dinZ9gJeXLsXSFn+vY+3vl40Wq9ogeuYnmB91FNv2l+gXt+qKkZpRjK6JfeAGANAgLTULttFx6GajQ5EiAyVdE9FXvxMQylBYUg8vf3/DCQmAci/2pDqgz5AEAGqkpp6EU4wckc0XhesqcP5CFXxDQ6Gv5Vpkb/oGRx1jER9hA6GsAMX1fggKNl5JrsW59BOoiYxDnK3RLhOY60coK0RJvRf8/Zu2K/fuQapDHwyR1+LiJRV8Q0Ouynbm6804atu4IFKN1JSTcBg8F59+sgofrnwDz8+4FeH6WSZ0RQpklHRFYpORUFZYgnovfzQNp8TePalw6DME8tqLuKTyRWhI42LLM/h681HYtmHRtq44FRnFXZHYxzCWJg2pWbaIjusGGwu+ad1WAcVpD8T3jtAfrz0FxQkNohPksAWgTk3BSYfBmPvpJ1j14Uq88fwM3NqkNBQZJeia2NcQN9drYxF0l5GWXojI3r3ReB6s3LcPaa59MTjOxkSMFuJ8vgaxc35ASsoxJO3dii9WPIMxkU6AUIaC4nr4BQU32ciA3o+RkMvtxXVJsEbmey9gg2w0pvR2Qq1KBZWqDk4+HWGbexqnGszHocl4Fi4iI6sCnbt3xy0AoD2NDZsOwyE2HhEy8byBrhiK9CJ0iZe3moy1RIfLaekojOyN3k1GxL40V/QdHGfan4Xnka+JxZwfUpByLAl7t36BFc+Mgd6MZvQz9BMpl8PeQjzqsUZIZBjsL+YgbfvrWJE9Ci8taJqYas+l40RNJOIMxtJVnMeFKl+EhjbmTjY2fXMUjrHxJh5CaYY5v1uoS+L1sbV8jViHRCLM/iJy0rbj9RXZGPXSAvRzFLep6FgypeX8Ec5h3dI18Jz/DVY91g+Wrrckbiz/OnPbhIUh2Bqo/mUNvi7wxNiFz2KAE2Dt1gGuMh0uH96GH49kID35F2x8+01sOSMA2jNIyVCCjtFIiLUDUIfU1JMQbMIhl3sAQjFy865ARxVObn8fH2zNgZOrM6yoxpEvXsLSp+7AHYuToKINIuVyuAh5+PGdt/HNgSxUyFzgZAPIvEMQ6tLcHTIETFqJn375Fb/+2uzvl+14997g1k84aC+hoNQZgUEd9E5V60+U3eOD9McKBVBklOmLHNRIU2TDs3s8gho7snaHt5cNinPOoAoAdKX45aVXsdN/Fp4Z1wHQZiM1U4Wu8fFo8bFrmQOcnaxQVVaKBgCVh5dj3nsKaKPiIbcHrJxd4IQinM81vFykNhcpmaXQQYuzZ/Nh5+vXlPS6Mux5czYWbznffAQA5vuxcveGl00xcs5UAQB0pb/gpVd3wn/WMxjnaQ8nRxkqy8quyjZnxVHUR8ohd9RPYhSZNeiW0BMOLYcDAKjTFMj27I74JiPB3dsLNsU50A+nQ+kvL+HVnf6Y9cw4eNo7wVFWibKyBgCVOLx8DlYcrUekXH+i05XtwZuzF2PL+dZPvagVCpz2aBpLKFAgo0x/YrfkG+O22mwFMtVRSJAbCrwyDWl5IZDLPSCDFmcUmajploCeppWGItuzKW4AWF+PjUV8inoF0k7Vo+JCDsp1AKqS8Nbbu+A3bRZuczYRo1ZucHe1QlFuDmoa+9DUoEYDwMoZLk5A0flcw7t5apGbkolSncGPXrGQB1qL6jKmej1eXFmIccvW4M1XX8Wrhr9XnrkdIVVncKpAMBuHJuNZKEVpuQ42NjawQiUOL5+H91O1iIqXw95C3kCtQOppD3SPD4E1dCjb8yZmL97SqHUz6qFIO4X6igvI0RsRSW+9jV1+0zDrNmeT/rRyc4erVRFyc65aEZqaGujNaEY/dRoU2V6IlQfC2kI8NmIX0QXBpXux5MVtCP/PYkzwaapv2rNnkW/nCz+DsWQOznCyqkJZaWPuzMN7CoOtxPQ353dYtq/5+thavqvYRaBLcCn2LnkR28L/g8UTfCCzYFPRsWQW8gcAriThYEZX3DrS9993wr4ZMP797R+Peg9nh9nSysqa7kPevLrWhNpz/OL+CDpagQAIWNEucAo3Fgpk9dec5G5Np4HL9e8/aUjnkgQ72vpP5481JFnDXbM7084KhJUjh7ydQ3Xm2xzmaU0rWNHWdwDnPDmKHnbBfGynmlTv4KNBNrQyjGPr05fzfrxkcf2GKFc28i7PAVxueIFJw4ml7OUxlmtLDb3W/chp/uGcvUdNNmRyaS8Pjl1b2mJM5b4XmejpzrA+wzikewADej7KjdmGBRHKLzjBvQvnHjBeICHw0ldTGOTkzx79Ehg7aBYXTY1l9Pzf9OushEJ+Oz2CTu4R7D9sEHtExPGRb4sosIEZr/eli1sE+w4Zz9cPa8grm3mvpytHfJhnNIZYP0ruezGRnu5h7DNsCLsHBLDnoxupF1tg0eYHGeLky9g+8YzqM40L7otm6KM79QsiKzdwQocIPr3fWCfq168t7UWPsWvZaEKSpHIfX0z0pHtYHw4b0p0BAT356MZsg65F3PxgCJ18Y9knPop9pi3gfdGhfHSnfvnllc330tN1BD/MM/Z0A08YjVX34zT6h8/mHsPKTfO+ad1W+cV4evRYyGON62D2P8UIvwf5XQ1JVnLDhA6MeHq/yXVwDZlGcUOS12NjEZ9qs15hL8euHNAvlCHyAewZ6s2wcSt5vIZmYlRg6fan2N3dnZ37DufIoT3ZpfNYfnROS1Jg4bfTGeHkzoj+wzioRwTjHvmWRYKxH83poua+OZ3pceu7bFwedZWKzznOrZP+AQ6zcWginqnktkfC6OAdxcT4GA6ctYTT46I5/zeNxbzR5+8YrikRSF7h5ns96TriQyPB9E9XvdLLkV0H9GNoiJwDeobSO2wcVx7Xr0w06U+hlNuf6k53987sO3wkh/bsws5jP6LejKb10xj1Yz4em1H9DSe7W9MpYRGTjd4z1ZDxOvu6uDGi7xCOf/0wNcIlfjUliE7+PdgvIZaDZi3i1NhGW4nob9bvbbGvmfpoSr6r41Xzm8nutHZK4KLmSonYVHwsC/lDUnNwLruEPc7dFtavS/wx/PsmSaJoePnsUR7cf4CHM/NYaVwsxRCu8PyxgzykyGO1IRc0pSeZ/Hsa8xs3NEdVyBPJB3gg+QSL2viiOjEaji9knH/bX3pnDm3leaYeOsCkjEtXF4BbRktlzhEmpZ43YzMVCzJ+44GkdCNbVDPv+EEeSrtEFVU8vKgXA4e9RYVZHcz1o2Xl+VQeOpDEjEvGUgtUnhWT7RrQVvJ86iEeSMpg6+GUPHskiannK1s+8q86zEW9AjnsLYXhibL2c22+uVFci43FfXrlq7vo0W0Bf1df4fljh/h7ZmGbbNNQfpZHD+7noePZLDFqoCrI4G8HkpieXy1y0SGmS1swF4fN49mAUMlzR5N43DgeyDbkjR7V4UXsFTiMb5k2Iu/y6MYFv6t55fwxHvo9k4UmDmtNA8vPHuXB/Yd4PLvEyO7m9GvJ9cZjdd5xHjyUxkuNxtIqmWMid0T1N2Da722zrzlayWcRMZuKYS5/9Pvy3x3KDoYnMyX+fKRJ0j8ETfICdnNP5OMbjrLcfF27aVElL+SA3k/x55K/ofAWUTF54QD2fupn/iPVM4O4TzX8/T9d2WHilzfJ26RvUlTJXDigN5/6ucTkpE/z+3/YtcNEfvlPNaIF/f/ZXGHat6/wnq4dOfqTvH+h/jcHViRp/BOcxN8QIR+7P1qDg053YMH03nAx3n+zU1+LWpkjHMUWaf6Nqa+thczRsdWi4n80oj6txa4X78E3Ee/hk4eavwVboiX1qK2VwdG0EVG760Xc800E3vvkoRZvwf7nIK7/PxrhIn5e+QkUHqMxc1o/dJQWJP0lSJMkCQkJCQkJCQkTSHNTCQkJCQkJCQkTSJMkCQkJCQkJCQkTSJMkCQkJCQkJCQkTSJMkCQkJCQkJCQkTXMMkqRZFpxRIOX4cKSkKZGQXorr1C4T/ELQ5W7Bw5sNY8NVp412W0eZgy8KZeHjBVzj9J8krISEhISEh8fel3ZMk9c9PoVdsPHr26oWePePRo2sgvIMH4/mdpcaHthEdLv7vWUy8YzLeSq433tkMLU5++QaWr92In9MrjXdaRHvyS7yxfC02/pyOSmmSJCEhISEhIWGBdk6StMg+kopSnR36PLcdBw/8hI+ndQWLDuGd5V+3OFJTWYyCkmpoW2wFoFGiqLAMqqsTlToc3vIZfvw1C+Wm3vOhrUZ5pQaADWKe/ga/H07H3lf6NO0XalFeWIjy2uYfhwWE2nIUFpajcbNNzNP45vfDSN/7Cvo0++5mfVUxCooq9d/YMYkOtRWlqDQ1f9NUorigBNWtlAQ0yiIUlqmMPkQrISEhISEh8XehnZOkK1CknYXWOgi9bxuBgYNG44FxCXC1Aqxs9B/TrD35JeYM6wQvL38E+nnAO3Yq1p2uB4QCbH9+OEI9vRAQ0BEdfEfgnfTDeH1YNGb9UAmdcA6fTIyA/JndEM58hIldu+LeJa9ifJeO8O39HA7VZeOTR8bh3ifWIJMAUIXjq6ahZ0AHeAcEwNsjCHevuwhUHceqaT0R0MEbAQHe8Ai6G+suNiD7k0cw7t4nsEbfGKrM9XhicAg8PP0RGOAJj5DhWLxLfzescfwH31qLuYOC4eHlC5+QEXgnwzBTqj2JL+cMQycvL/gH+sHDOxZT151GPQChYDueHx4KT68ABHTsAN8R7yBLC2izVuHuHl3Q+//2ikzIJCQkJCQkJG4W2jdJ0qQjJbMOsO2MLsHVKEjfgiXLt6MCPhj94FjoSr/Hk3dMx6oTAZj29hdY959+wMmvsPSD31D143OYufwArEe9gS+/WY1Fk/oh1MsBIXERcG4gbMKGYeoD0/D4xHhUH92NPWdzsXXFB8iPvx+PPT4BcvVh/PLLKeTDFb7WOhRuegzj53yJvPCZeHfjRrw7+04khtdj02PjMefLPITPfBcbN76L2XcmIsKzBod/+QWn8gFXX2voCjZhxu0z8EmGFyYtW48vXhsL78K9WPbMSgC4Ov73L83HdrvhGNfLA0LxAWz84QygK8X3T96B6atOIGDa2/hi3X/QDyfx1dIP8JumCj8+NxPLD1hj1Btf4pvVizCpXyi8ZDoU7fkW2zLzoLZxhpWxXSUkJCQkJCRuPoy/UyKGNvctDrQFgcY/K9p27MWHPzjMCqGBaUviaWflyAEvHWBm6l5+/kQCnWVOHPRWFs+92Z+2VjbsdPf7TCps+qay+tdZDLS2ZtCsXw1fPdbw4NwI2ljZsPOsn1lhOE6z/ymG28jo+/A21jUc58IetrRyGckPLzR90abh+EL2sLWiy8gP2WwzqdnPp8JtKPN9mNvqNDz8f1G0tXLkoLey9R9SVO/m48HWtHK+q9n41gy67xsWCALzVw6lHew4aMV5NqQtYbydFR0HvMQDmanc+/kTTHCW0WnQWzytOcc3+9vSyqYT734/ic3UJFUFzEo/x4pWHzCUkJCQkJCQuBlp150kdWoqTgoydBj2HD5950n097SCttYOkYMS0IHnsOOXTNSzFr+9PARxfSfghX3OGPfSN1g/Jwohk57C1G4OyNvyFAZF9cVTW4ugg4BLaSdQorNF17hY2AKArgSK9DwItr3xyDMj0QEAoEOxIgMXBVtExcthnbsLu09qYdfzTowLalRBQO6u3TiptUPPO8fh6mYAumIFMi4KsI2Kh9z6LH7dcxYNtj0x7q7O+m9GaZWorCZk7p4txn9yyV3wlzUg+3QOBOuOiOrug3M7fkFmPVH728sYEtcXE17YB+dxL+Gb9XMQaReCSU9NRTeHPGx5ahCi+j6FrUWGRVGO/ojqHoYOptZdSUhISEhISNx0tGOSpMWp1ExcoQ26j3kMM+a+jdcfCIN19VF8+90paLUFuFisg7X/DGyr1kKrrkTByf34ctEdCLUDrIMn4bOUTPy6dDi8qhX49MMfUabTID39NATrYMTGeuiFqVcgNUsL65De6BvaOKNQQ6HIgtY6BHFyb+guXUSRDrDz8kEHgwY6XT0uXSyCDnbw8ulgUEwHnQ5QKxTI0lojJE4Ob10RCkt0sLL1hp+P/qiqvTtw6ArQod/QpvFD+6B/qDUgXERqRjF0djGI726NgovF0Fn7Y8a2ami1alQWnMT+LxfhjlA7ANYInvQZUjJ/xdLhXqhWfIoPfyyDDoBOrUKtiQXeEhISEhISEjcn7ZgkKaFQnIPWOhhxCX6QwQ7dE2Jgb6XFqWNHobR2QwdXGXSXD2Pbj0eQkZ6MXza+jTe3nEF93o945+1vcCCrAjIXJ9hABu+QULiwGLl5V6CjCie3v48Ptp6B5kwKMpSEY0wCYhufQtOeRWpmJegYjfgYO1i7dYCbjFDtfRfPLHsbS2cNx9Bnk+DQwQ0yqrD33Wew7O2lmDV8KJ49oMLZ1ExU0hHR8TGws/FHgK8MUKfghy8O4PCOlXj0mS9ReIscT8wfD23j+NGG8etSkXpSgE24HHIPa7h1cIVMdxmHt/2IIxnpSP5lI95+cwvOCALyfnwHb39zAFkVMrg42QAyb4SEukCneBX9fFzRceI6lBtZVUJCQkJCQuImxfj3N7NoDnJeF1va+tzPzZX6TQ3pS9nLXka7qGeZpNHy3Bf3M8LR6uqaJSu7QE7ZWMjaHY8yyMaw3cqWPn3n8cdLAska7prdmXZWIKwcOeTtHFZ+PYnu1k4cuPyUfr0QSVZ/zUnu1nQauJyntCS12Vw9IVjfDla0C7iVbySrqM1ezQnBdrQCCCs7Btz6BpNV1fx6kjutnQZy+SktSYFFW59ivLu1/jhY0T5gCOd/l8sGktVG4zekL2GCnS39p//IGpLac1/w/ghHQ1v9OIFTNrJQUHPHo0G0sTLobuvDvvN+5CWBvLJ5Cr3sOrDfq8fZ0MykEhISEhISEjcvViT1z8S3gbYcWl+eg/STBaiz80Ro124IdtP/ZFZblIWMs+WAZxfERfvCvrGBrhoXUtNwySYEcd2D4dzme1u1KMxMwzlVB3SRd0PHWxo3FyIz7RxUHbpA3q0jGjcbo6vOR2bGeVyxC0BUj87wbPbuJIvUlyMn/SQK6uzgGdoV3YLd9GubUIuirAzo1YxDtO9VLVthZSU94yYhISEhIXEz065J0j333IMtW7YYb5a4BtphdgkJCQkJCYm/gHZNkpKTk3Hp0iXjzRLXwD333GO8SUJCQkJCQuImol2TJAkJCQkJCQmJfwttXgEkISEhISEhIfFvQpokSUhISEhISEiYQJokSUhISEhISEiYQJokSfyh6NSVUNZIrxqXkJCQkPj7IU2S/iBUp37G+u/TUGn4dFubqCnAycxcVPxVc4qa7ZjTawzezroRAiixf+lwhAVHQx59G95MPYGf13+PtHYZ5EZTg+1zemHM21m4ERpeC9cUFzcN7bGfFiffG4+ej/+AauNdRtRsn4NeY97GDQm7dtF2GW96bmjuSkhINCJNkv4Q1Djw9uNY8GkSytv67KAuH2sfiENsXF8887PaeK9pNElYft8srDktGO+5Juoz9mPXOTv4BtoY72o39UffxFMrBcw5eB4X8nZjTvG7eHzBp0hqs0H+AOozsH/XOdj5BuL6NbwWriEurhNN0nLcN2sNbkiItMt+SiT/sg+1rr5mX+iqpx4Z+3fhnJ0vbkDYtZO2yijODbXxNXIjc1dCQqKJf/EkSQe1shSV9cbbAUAHVYUS6uZX+5pKFBeWQWWiEAqqMhSVqdC0yx6jV+ehdMeTCG/8Ri8AjbIIhS2Oa0K5YyleU8gxMqYGZ07lmzhGgKqsCGXNBNCe/AVfbb8AbYf2vb27vrIEJVXGV5w6XE5VoKBzPOTORruaoVNVQNnSMKgsLmwhFyDg/J59yO0+Dnd30b/K3H70auSV7sCTLQxi3qYmfWByLBPUV6KkpKrV3Q7d5VQoCjojXkxB0bhoq/4GBBXKiprr1/64aEk9KktK0Mp1BlrHoRYnf/kK2y9o0b4QMT1OW+xXX1WC0motoEnDsRPWiJFHo+ll9iZspbuMVEUBOsfLYb5XQKdWotS8U1ChVKOFV0RsKi6jBVr5VMTGGiWKzMa3EaK5oO+rtFJjvNWA6dw1nedmsDC+Tl2BsuZ91VehtKK2hc2bEMshE3ltdmwNlEVFULZS23R8Skj8IRh9puQfjpq75/fhXUs+4NyhkQwJ9KKL/wiuUKhJknU757L3XYu4bEoknWVOHLuugmy4wK3Pj2IXvwCGh3rTPXgk3/i9Wt+dKpPrZiYyyDeYESEdGZD4LHdWkKz7lfN6DuXSo/ovtWnObeH8YZ3o2TGUoT5u9E2czS15V79MR6qP8EW5L29bdYrfTfVhx2k/sq5pL1WZ6zgzMYi+wREM6RjAxGd/YvZ7Yxjm7Uwba2d6BwYxcvpmktXc+oScw19XGL4Rp2XORxMY88AGfUd1J7hmWg96e/gz0C+MI15cxAfiH+CGUoFkHbc97M+AmT9Tb41m1O3k3N53cdGyKYx0ltFp7DpWsIEXtj7PUV38GBAeSm/3YI5843dWa8/z4wnh9HGxpbWTFwNDh3NZejV/ndeTQ5ce1cslYlOTPjA3lrGcrOOJNdPYw9uD/oF+DBvxIhc9EM8HNpTq9257mP4BM/lzKwXF46Jd+pMkVcxcN5OJQb4Mjghhx4BEPruzov1x0Yy6E2s4rYc3PfwD6Rc2gi8ueoDxjX41FYdl2XxvTBi9nW1o7ezNwKBITt9cweqtT1A+/HUqDB8R1OZ8xAkxjTEgPo55+5FUZfCzaXH08fBnoF8oBz80gdEOiXz9tFbcf3Xb+LB/AGea6FS9ez773LWEH8wdysiQQHq5+HPECoUhPuu4c25v3rVoGadEOlPmNJbrKizYVFRGC7ljyqc/HTVpY2rOccv8Yezk2ZGhoT50803k7C15Td+ibI5YLuyezz6TXuNnC0YyKjSAHRz9OfrDkyb6Mcpd0Tw3wtL4k5fx8+dHMjrUj+7Onfnw5tNMfncKEzoH0svRg/1fPWrwh3gOmcxrkbGVv73BOyN86B/WiR29ojh/j6EfkfiUkPgj+HdNkhoy+FKCPZ0Cb+Xi/aUUtOe4YpATQx7fTbKBikVxdHDxZ9/ZXzM9J5cF1XVMXphA74R53FGgJVnKtWPd6Dd9O+tYyV2zI+nZfwmTlSR5henfbWV6HdmgWMQerqO5upRk9QEu6O7B+Kd/4qUGkqpjXBhvz4h5hwxCaZn97q30SVjMY2otT77am479/suzjZWwchdnR3qy/5Jk6odJ53db0yloKrjtkRB2mPg5C5WVrFYLpCaZC7q5cey6ckPjK9x0jwfD5+wjqeKhBbH06PU8D5YLpDKJi/u60iZsDvepSTZk8uUEF45YVUTjUtqgWMQ4Bxf6953Nr9NzmFtQzbrkhUzwTuC8HQXUkixdO5ZuftO5vY7UKHdxThc33vlJHpVXVGxoUHBRD1eOXl1KUsympnxA0bGaozq0gLEevfj8wXIKVDJpcV+62oRxjl5BZr6cQJcRq1jUSkGxuGi//pW7ZjPSsz+X6AODV9K/49b0unbGRTNUh7gg1oO9nj9IvesWs6+rDcPm7CPNxqFATcU2PhLSgRM/L6SysppqQcPkBd3oNnYdr0bIpnvoEW6IAdFxROzHGu5/JoruPZ/jAUNsLenvRpuAmdyhFvdfQ+bLTHAZwVWtOm1gxksJtHcK5K2L97NU0PLcikF0Cnmcu9UkGxRcFOdAF/++nP11OnNyC1gtalNxGcVzx5xPVSZsXM0DC7rTI/5p/qQXgscWxtM+Yh4PaZqpR1rMhYwlCXR0C+WIJftZKqh54OkIOgx5h3mtTNU8dy3keQvaML57KEe+dJCXhWp+P9WXLkFdOPjRb3m+oYHpi+V0iF/C9AZLOWQqr0XGbsjk0l4uTFyawTqSDcU5zFUKFuJTQuKP4aaaJKmKzzH79GmePp3Ns4VXjHdfP8oNnODqzmHvZhuuxur4w1Rvut+7mWQ5145xpnP/Zcw0XGULxes4ziOAU9alMystids/ncuBHX04ds0FNuSv4ij3cM7eq2o5BsnytWPoFvsCjzUIzF81iu7hT3LP1cP0YzpP3EiSFIq/5r0BYZyxvYIkqfp2Cj19H+LWOpJsbD+brYYRLvCdwU7s/dqpq1eWQvEqjnSRc3GaQQHNYT4bZSj8pRs4wTOQM7Y13n/R8PCzUU0nTOUXHO/ejc8mt6rkLF87hs7O/bmsyTBcN86DAVPWMT0rjUnbP+XcgR3pM3YNLwgm5ChfyzFusXzhWIOoTQUTPrA0VhOl3DDBk4Eztl29w6Q5/Cyj3MZSf95T8ovx7uz2bDJbaSgaF+3UvyGfq0a5M3z2Xhq7rD1x0ZzSDRPoGTiDTa5r8qsgEofChXc42Kk3XztliBChmKtGulC+OM1wt6RlDIiNI2Y/oXQ9J3i0jK3kBd3oPHIVixpEbCWQyi/G073bs2wddkpumOBK92HvMtsgft0PU+ntfi83qwwx5ezM/ssyDbqI21RURlMx21x3wbxPjW3c6I8nm4TQy+08kRuNGovnQgXXj3Oh69B3eFrLq/K63rmW+krRjOa5aynPm9G+8dXcMTOAdl3n8UANSWp58rXedBrwFnO1lnKodV6Ljq05yLkR9ox69HvmNrsQEo9PCYk/hptnTZIuH988OwmTJ0/G5MmT8dCbB4yPuG7qT6Qiy3ooHn6wC6wBQKdEQWEtfPz8AE0GUrNsMWLWI4gxrH2sPbATB+u0SFn5MKY9sRCfHJJh/OqD+Gp6CFQHd+GIw2CM6utoNIoGGalZsI2Ro5uNCod2HYHj4NvR7+phKly+XAcPHx8ANTjw+mJ8j3C4pH+MN954A+8cLIat8gxOFQgAqnFw1xE4DB6FVsPUpyMt2x2xcZ30ugBoUKTilGMM5BF6BXRlx5ByMQxxcleoj+zFYfbHyCGGRQu6Yhw5lo+wODlcAdRnpCDLOhbx0carMwz6jJiFR5oMg50H66BNWYmHpz2BhZ8cgmz8ahz8ajpCZEBDmgKnHKIRZ5BDk5GKLNsYyLvZiNpUZsIHlsa6ivoI9h4m+o8cYljbokPxkWPID4uDXK8gUrKsERvfev2JaFy0V3/VQew64oDBo/qipcvaExfNUePI3sNg/5Foct0RHMvX+7XabBwC9elpyHaPRVwnQ4Q0KJB6yhEx8gj9wmtdGY6lXDTEgPg4YvZTJ+3Gb2geWyU4djwfQXFx8FCL2EpWj4yULFjHxqNV2NWfQGqWNYY+/CC66J0CZUEhan384GfTGFMjMOuRGMMicnGbisooE88dVJvzaWsbqw7twhHHwbi9SQioLl9GnYcPfJqtQ4OF+iKrz0RKlg1unT4VkdYAUI2skwUI6R4Ll5bdtMhdS3nenHaNLxQiK1uJ2CnT0c8JANTIOpELj6gY+FtbyCETeS06tl0/PLPiKXT8eQpio+/AK3tLobMUnxISfxA3zyRJFoyH1x+HIi0NaWkK/Pb2ncZHXCc6XE5LR2Fkb/RuzKnKfdiX5oq+g+OgK1Igo6QrEvu6GXYKKDyfD03sHPyQkoJjSXux9YsVeGZMJJwgoKygGPV+QQg2fphEVwRFRgki5XLYC2UoLKmHl79/09NAyr3Yk+qAPkMSoM18Dy9skGH0lN5wqlVBpVKhzskHHW1zcfpUAyCUoaC4Hn5Bwa2eJtKeS8eJmkjExdkatgi4mJGFis7d0f0WANDi9IZNOOwQi/gIGSrOX0CVbyhCDScjbfYmfHPUEbHxEbCBDsWKdBR1iYfc+Cxg0KdrYl9ctUzheeRrYjHnhxSkHEvC3q1fYMUzYxDpBAACLmVkoSIyDnG3AIAORYoMlETKIbcXsylM+MDSWE3oKs7jQpUvQpsUxKZvjsIxNh4RNoCuWIH0oi6Ib62gaFy0V3+hrADF9X4IMg6MdsRFy3YVOH+hCr6hoYbJiRbZm77BUcdYxEdYmY9DaHEu/QRqIuPQGCLCxQxkVXRGd32AQHt6AzYddtDHgOg4NqL2U168BJVvKEIaTX/ma2w+aosYeTSsRWwFXTEU6UXoEi9vNfnQXU5DemEkejc5Bfv2pcG172DE2RliqmsimtJVzKZyURntRHPHxrxPW9lYQFlhCeq9/OHfJAT27kmFQ58hSGjxCJ2FXChORUZxVyT2MSioSUNqli2i47oZ1YLmuauzkOfNae/4CihOeyC+t6Ef7SkoTmgQnSCHrYUcap3X4mMD1gga81/sPXUMb8dl4LXnPsXpBvH4lJD4o7h5Jkl/OPVQpJ1CfcUF5JTrAFQh6a23sctvGmbd5gx1mgLZnt0RH9R4uWcFN3dXWBXlIqemsQ8Namo0AKzg7OIEFJ1Hrkq/pzY3BZmlOkCdBkW2F2LlgbC2doe3lw2Kc86gCgB0pfjlpVex038WnhlTjfUvrkThuGVY8+arePVVw98rz+D2kCqcOVUAwcoZ+mFyoR+mFrkpmSjVAdqzZ5Fv5ws/j0YXCigtLYfOxgY2VkDl4eWY934qtFHxkNvL4ODsBKuqMpQ2AKg8jOXz3oNCG4V4uT0ANRSpp+HRPR4hRle7en080T0+6OodKys3d7haFSG3yTDQ1NRA/xCKGmlpZ+AdEwd/a8O/FdnwipUj0FrMpjDhA0tjNSFzcIaTVRXK9Ari8PJ5eE+hRVS8HPYA1IpUnPbojvhWCorHRXv1t3J2gROKcL4pMJCSWQpdW+NiXIerfQIAZA5wdrJCVVkp9K5bjnnvKQx+FYlDaHH2bD7sfP3QGCJCaSnKdTaw0QcIls97H6mNMSA6jpj9ZLB3coSssgxljbE1ZwWO1kdCLncUtRXUCqSe9kD3+JCrtm2kXpGGU/UVuJBTDh2AqqS38PYuP0ybdRucDTHl2T0eV0NF1KaeojKK546IT1vZ2Bru3l6wKc7BGb0QKP3lJby60x+znhmHlp61kAsKhd7eBgWFAgUyyiIhl9s3daE/slnuWsrz5rRvfG22ApnqKCTIDTNuZRrS8kIgl3tAZiGHWue1yNi6CmQpcvT1zrkzYsPdcItbB7hYi8enhMQfhvHvb/9YtFl8pZcjuw7ox9AQOQf0DKV32DiuPF6jX5S6tBc9xq5l8wdAhNLtfKq7O9079+XwkUPZs0tnjv3oHLUkhcJvOT3Cie4R/TlsUA9GxD3Cb4sENmQuZS+PsVxr6Ei570UmerozrM8wDukewICej3JjtobqfXPY2eNWvtu44OIqFfx8nBs7PbmHagos/HY6I5zcGdF/GAf1iGDcI9+ySCAbMl5nXxc3RvQdwvGvH6aGpHLbIwxz8GZUYjxjBs7ikulxjJ7/GzUkhUtfcUqQE/179GNC7CDOWjSVsdHz+ZuGZMMJLu3lwTFrSlov2jbShyQplHL7U93p7t6ZfYeP5NCeXdh57Ec8pyXZkMpFPVx5+6f6J8rYkMmlvTw4dm0pBVGbmvaB6FjNES7xqylBdPLvwX4JsRw0axGnxkZzvl5Bnljaix5j1rDEWEHRuLgG/YVCfjs9gk7uEew/bBB7RMTxkW+LqGljXLRG4KWvpjDIyZ89+iUwdtAsLpoa2+RXM3FINjDj9b50cYtg3yHj+fphDancxkfCHOgdlcj4mIGctWQ64xpjQHQcEfuRFIo288EQJ/rG9mF8VB9OW3Afo0Mf5U61uK0aTixlL48xXNOqUy2zXulFx64D2C80hPIBPRnqHcZxK4+zhq1jqhExm4rKaCF3zPlUMGnjfXwx0ZPuYX04bEh3BgT05KMbs1ut46KFXDhhlAt1P06jf/hsGh7yasIod0Xz3Ij2jK/8Yjw9eizkscYlW/ufYoTfg/yuxlIOmc5rs2M3pPHNoYEMlg/l8P5d6NdpNN88XG0hPiUk/jisSP5Jr7X7i6nehLtDX0HYdgUW+WUivcge4fIY+Fm6CtFWIEeRhQKNI/y6RKOLT7MGtYXIVOSg2qUTuscEwdnMfTmh6gIyMvNR5xaOHrEBhlvKbae2MBOKnGq4dOqOmCDnq7f/avJToMi3QVh8DwQ4AoAOVbkpyFJ6IzouFG5Gl+dC5TmknLwCn+juCDXe2W60qMhRIKtAA0e/Loju4gN7ALqST3FH5MfofeAoXu5h5ja4mE1NYnqsVgiVOJdyEld8otE91K3V3QmTXGtciMpUi8JMBXKqXdCpewyCzARG2+NCQOW5FJy84oPo7q39aj4Oa5CfokC+TRjiewTAEYCuKhcpWUp4R8eZiAEL44igq8zB8ZPVZmJLzFamqMamu0PxSth2KBb5ITO9CPbhcsRYdoqoTcVlFM8d8z5tbWMIVbiQkYn8OjeE94hFgHnHXkMuWKZdeX4jxr/WHDI3tq4G+RlpyNN4ITKuK3yu/kx57fEpIXGt/GsmSfXJC9DjjlwsPP8/3N+05EXiRqGrwLnUTBxeOxezj47HvsNLEGdmjnQzIcXFTUh9Mhb0uAO5C8/jf5JTbnqkHJL4J2P6EvcfiLbGDmETx6CP2Gt9Ja6d2mNYt/AlbFDejk83/t/fYoIEKS5uTrQ1sAubiDGSU/4WSDkk8U/mX3MnSUJCQkJCQkKiPfxr7iRJSEhISEhISLQHaZIkISEhISEhIWECaZIkISEhISEhIWECaZIkYQYd1JVK1GiNt0tI3LxoqitRKxhvlfjXoFOjUlkDqWxJ3CikSdIfhOrUz1j/fRoqdcZ7WqIqPIVTBYY3+TZHV4W8rDMoMX619J+Bcj+WDg9DcLQc0be9idQTbdPlD6VmO+b0GoO3s/6q8qfCqZ/X4/u0StxQM/zlev0d0OLke+PR8/EfUC2SW1X75qFn9+nYfPHvPktqqa9E21DuX4rhYcGIlkfjtjdPG+/+e6A9iffG98TjP9yEnledws/rv0eaceJdNzd3vEuTpD8ENQ68/TgWfJqEctFnBzU48trtSHhoPYpbxJ0O+WsfQM/hC7FHqYMmaTnum7UGp/+U2l+Po28+hZXCHBw8fwF5u+eg+N226PLHUp+xH7vO2cE38C96t4D6AN5+fAE+TSrHjTTDX67X3wIlkn/Zh1pXX9xiLrdUh/Daswcw9OPVmBr6d3/LYHN9r50/t278xdQfxZtPrYQw5yDOX8jD7gVdjY9oE3+5zZTJ+GVfLVx9LXv+z5ZVfeBtPL7gUyTd8BPBjYn3P4p/8SRJB7WyFJX1xtsBQAdVhRLq5hMXTSWKC8ugMhGQgqoMRWUqNO2yx+jVeSjd8STCm9VrjbIIhS2Os0VEZBiQfw7nmt9IqN6LZf89hMh5SzDJV4eTv3yF7Re06GDV7BgA9ZUlKKlq6x2INuoknMeefbnoPu5udLGDeV0qi410aYZOhQqlusUdF9Hjm2FaJx0upypQ0DkecrF3sejUUJZWwqRL26q/gVY+tR+N1Xml2PFkeLM3eWugLCpEmakOjKmvRElJldHPAG3Qq74KJSVVZnSyhAaVxW2QT6NEUZGy1ffw2txeFEt9aKAsrTQxNlBfVYLSai2gScOxE9aGj9Gajkf1FUeMWvk/LB/lef1FTaNEaaUpiVqjUytRarqImM6DVjWgCdP6to1W8Qqt2boBjRJFZuLeGEt5q1GWoo2msoC5OKhHZUkJWpUEI4Tze7AvtzvG3d2lhc1M1xMDggplRc3tIGIzi7SuL6Jjt6AeVSWl0Lv+GE5Yx0Ae3VwLUzkkIqtIXTMlJwDo1BUoay5rfRVKK2pbxK796NXIK92BJ5snHsTyRdx34vEu3vZPxfg7Jf9s1Nw9vw/vWvIB5w6NZEigF138R3CFQv9BpLqdc9n7rkVcNiWSzjInjl1XQTZc4NbnR7GLXwDDQ73pHjySb/xere9Olcl1MxMZ5BvMiJCODEh8ljsrSNb9ynk9h3LpUf2HjjTntnD+sE707BjKUB83+ibO5pY8/cfH1D/PYIDLeH5R2SijllnL+tEt8mnur8rme2PC6O1sQ2tnbwYGRXL65gqy7gTXTOtBbw9/BvqFccSLi/hA/APc0OKjZ3rao5P2/MecEO5DF1trOnkFMnT4MqZXt9Sl4cJWPj+qC/0Cwhnq7c7gkW9Qb4467pzbm3ctWsYpkc6UOY2lfihzxxshqlMdtz3sz4CZP9P401VU7+b8PndxyQdzOTQyhIFeLvQfsYIGl7ZLf9K8T+t+nceeQ5dSbwYNz22Zz2GdPNkxNJQ+br5MnL2FBpcaUccTa6axh7cH/QP9GDbiRS56IJ4PbCgV14sqZq59mPEdPRkQ2JFBA5/iM5PkhnZk9dYnKB/+OhWGb2lpcz7ihJhGezXwwtbnOaqLHwPCQ+ntHsyRb/zO1mZX8rc37mSEjz/DOnWkV9R8w7fB2tJe4KU1kxl9z2rmNYZd5VbOTujL5w/ov5dnto+63ZzfZxJf+2wBR0aFMqCDI/1Hf8iTjfZTZfCzaXH08fBnoF8oBz80gdEOiXz9tLZdudWSam59Qs7hryuob6llzkcTGPPABpJk3e757DPpNX62YCSjQgPYwdGfoz88SVM9qXfPZ5+7lvCDuUMZGRJILxd/jlihMPjQdB6IyimmrwW5TcZrmZm6oTnHLfOHsZNnR4aG+tDNN5Gzt+SZ1NF83tZx9/w+nPTaZ1wwMoqhAR3o6D+aH151XnMsyG4hDupOrOG0Ht708A+kX9gIvrjoAcY3tr2Kluc/nsBwHxfaWjvRKzCUw5els0G0nqiYuW4mE4N8GRwRwo4BiXz2p6OmbVa9lU/Ih/P1pkTjRxNiruahyfoiOnZLVBmfcVqcj17H0MF8aEI0HRJf52ktzeeQ1ox/ReqaKTnrds9nn8nL+PnzIxkd6kd35858ePNpJr87hQmdA+nl6MH+rx69Gte/zuvJoUuPsqEN+SLqO9F4t9D2L+DfNUlqyOBLCfZ0CryVi/eXUtCe44pBTgx5fDfJBioWxdHBxZ99Z3/N9JxcFlTXMXlhAr0T5nFHgZZkKdeOdaPf9O2sYyV3zY6kZ/8lTFaS5BWmf7eV6XVkg2IRe7iO5upSktUHuKC7B+Of/omXGkiqjnFhvD0j5h0iSWpzlrO/o5yL0/VJKBRv4mT/AE7eVEyBAjUV2/hISAdO/LyQyspqqgUVDy2IpUev53mwXCCVSVzc15U2YXO4r9WZtr06aajcNYdd3O7kJ3lKXlE1tNSlLpkLE7yZMG8H9U3XcqybH6dvryMbFFwU50AX/76c/XU6c3ILWC12fAss6NSQyZcTXDhiVVHrD/BmvMQEeycG3rqY+0sFas+t4CCnED6+W30N+pvzaQMVi3rQdfRq6l26gN094vn0T5eod+lCxttHcN6h1p/aVB1awFiPXnz+YDkFKpm0uC9dbcI4Z59aVC/Vwf8wpkNvvvibkmQlj7w6iO62nfjkXjVJDZMXdKPb2HUsNxx/ZdM99AjX26sueSETvBM4b0cB9WYfSze/6TQ2e0PmUvZySeTSjDqSDSzOyaVSaHt71bdT6Bn8GHcZ4q584930CpzB7TXifTRkLGGCoxtDRyzh/lKB6gNPM8JhCN/JE0jWcP8zUXTv+RwPGGJhSX832gTM5A51+3KrBZpkLujmxrHrrlqMm+7xYPicfSQbmLEkgY5uoRyxZD9LBTUPPB1BhyHvNE0Ar9LAjJcSaO8UyFsX72epoOW5FYPoFPI49SFnIg9E5RTXV1xuc/Fqqm5U88CC7vSIf5o/6YXgsYXxtI+Yx1ZhK5a3DRlckuBIt9ARXLK/lIL6AJ+OcOCQd/KMOrEku4U4UB3iglgP9nr+IPVmWcy+rjYMM7RtgUbJXXO60O3OT5invEJVg3g9qdw1m5Ge/blEbzReSf+OW9NVJmxGapIXsJvbWDapsIn3eITr89dkfREfuwU1+/lMlDt7PnfAoOMS9nezYcDMHVRTLIdM+VesrpmS0xDz7qEc+dJBXhaq+f1UX7oEdeHgR7/l+YYGpi+W0yF+CdMbDHHdw5WjV5dazhdR31mId9G2fw031SRJVXyO2adP8/TpbJ4tvGK8+/pRbuAEV3cOezfbMOOt4w9Tvel+72aS5Vw7xpnO/Zcx03DRIBSv4ziPAE5Zl86stCRu/3QuB3b04dg1F9iQv4qj3MM5e6+q5Rgky9eOoVvsCzzWIDB/1Si6hz/JPVcP04/pPHGj4Z8/cpqPFx/4ro5kHZMWRLPD4BU8ZZiSCxfe4WCn3nytcUPpBk7wDOSMbY3X9RoefjaqxQmzifbpJFBg8aqRdJEvZprh+Oa6FK8bR4+AKVyXnsW0pO38dO5AdvQZyzUXBLJ8Lcc4O7P/skzDVaOF45tjSSflFxzv3o3PJhtXc1K5YQJd3Yfx3WyDfep+4FRvd967WdVu/c37tJxrx7gx9oVjbBDyuWqUO8Of3MMml/7Aqd7OnLjRuF0pN0zwZOCMbVfvwmgOP8uoxqJrVq/L/PIuLwZO38rGLNAk/YeRrnfws8skhWKuGulC+eI0g62b2Uso5rpxHgyYso7pWWlM2v4p5w7sSJ+xa2hsds3BuYywj+Kj3+fy6vynHe0b0hdT7jyCHxULpHCBH45wZ7f/JFFtoY+K9ePo4jqU7xiuHDXJC9jN9U6urSCF0vWc4NEyFpIXdKPzyFUsEtqZW80QildxpIucixsDW3OYz0Y1nsAruH6cC12HvmO4gteP6XrnWlYY9UMquWGCK92HvcumkJtKb/d7qQ+51nkgJqclfcXkFszGa+u60Xjsk01C6OV2nsiWYWshbyvWc5yLK4e+c1pfQzXJXNDNlXeubW0pMdlJ8Tgo3TCBnoEz2GSWlm1bYJwPYvWkMX9n723KXwPGNqOJetgif03UF9GxDVv0CCxdP4EeLXRM5oJuzhy5qoiChRwyllWsrgmm5GwV82rumBlAu67zeKCGJLU8+VpvOg14i7laQ1y7xfKFYw0m2rbMFzHfWYp3sbZ/Fdf98/0NQ5ePb56dhMmTJ2Py5Ml46M0DxkdcN/UnUpFlPRQPP9hFv65Ep0RBYS18/PwATQZSs2wxYtYjiDGsoa09sBMH67RIWfkwpj2xEJ8ckmH86oP4anoIVAd34YjDYIzq62g0igYZqVmwjZGjm40Kh3YdgePg29Hv6mEqXL5cBw8fH/0/bSMQEVqHC+cKUZ/7GZasA2a8+hi6Gn72rU9PQ7Z7LOI66Teoj+zFYfbHyCGGRSy6Yhw5lo+wODlcG4dopJ06ydCANMUpOETHIcIGRrrU4sDOg6jTpmDlw9PwxMJPcEg2HqsPfoXpITJoMlKRZTsCsx6JgX4o8eObY0mn+owUZFnHIr7F7/QAUI8TqVmwHvowHuyit49OWYDCWh/4+dm0W3+zPjX0EyPvBhvVIew64ojBt/fTf/EdAFSXcbnOAz4+Rr/Vq49g72Gi/8gh0GumQ/GRY8gPi4PcVUQv9WHsTdah/6ihcGlsd+w4LoXEoYcbgAYFUk85IkYeobe1rgzHUi7q7VV7ADsP1kGbshIPT3sCCz85BNn41Tj41XQYmR12/Z7Biqc64ucpsYi+4xXsLdUB7WhvE9YVYTZ5OHtWC/WRj7AqpReefCIRt4j2UY/MlCzY3DodUyP19qrOOomCkO6IdQHUSbvxG5rHQgmOHc9HUFwcPGTtzK1mNChSccoxBnJ9YENXdgwpF8MQJ3cF6jORkmWDW6dPhV6kamSdLEBI91iD/ZtRfwKpWdYY+vCD0IecDsqCQtT6+EEfcsZ5IC6nuL7iclebi1cTdUN1aBeOOA7G7U1CQHX5Muo8fNAybMXztj4zBVk2t2L61Eh9Da3OwsmCEHSPbWUpUdkBsThQ48jew2D/kWgqCUdwLL+xrRENaVCcckB0nD4fROtJ9UHsOuKAwaP6NuWvAWObAQ1QpJ6CY4zcUA91KDuWgouG/DVVX0THbhxIfySSdv8GNNex5BiO5wchLs4DMtEcai2rWF2TmZCzVcwLhcjKViJ2ynT0c9LLl3UiFx5RMfC3bozrGMi72bRu2yJfxH0nHu/ibf8qbp5JkiwYD68/DkVaGtLSFPjt7TuNj7hOdLiclo7CyN7o3Wjvyn3Yl+aKvoPjoCtSIKOkKxL7Nn7GWkDh+XxoYufgh5QUHEvai61frMAzYyLhBAFlBcWo9wtCsPFDSboiKDJKECmXw14oQ2FJPbz8/Q0FE4ByL/akOqDPkAT9v61DEBlmj4s5adj++gpkj3oJC64WMi3OpZ9ATWQc4mwBQIeK8xdQ5RuKUMN5VZu9Cd8cdURsvOGE2Yz26QRAuISMrApExsXpnzJooUshzudrEDvnB6SkHEPS3q34YsUzGBPpBECHIkUGSromomkoseObY0knHYoV6SjqEg+5cVXTXUZaeiEie/e+WoAq9+1DmmtfDI6za6f+5n2q7ycScrk9hLJClNR7wd+/6SDl3j1IdeiDIQktn83QVZzHhSpfhDYphk3fHIVjbDwibMzrpas4jwuVzdudwsavj+KW6Dh0swGEixnIquiM7t3142lPb8Cmww6IjY+AVeF55GtiMeeHFKQcS8LerV9gxTNj0MrsAGAdhDH/3YtTx95GXMZreO7T06hvT3v7CEQGFePcmZP4bMk6WM1Ygoc7WUMQ60NXjNSMYnRN7AO9VzRIS82CbXQcutnooLx4CSrfUIQ0qn7ma2w+aqtf1Nne3LqKgIsZWajo3B16k2lxesMmHHaIRXyEDXTFqcgo7orEPoY40aQhNcsW0XHdWufU5TSkF0aid1MRwb59aXDtOxhxdqbyQExOubi+onJbmY3X1nVDQFlhCeq9/NEUtkrs3ZMKhz5D0CJsRfNWh+LUDBR3TUSTqVKRZRuNuG7GQojJbiMeB7IKnL9QBd/QUMNCXi2yN32Do46GtkYIlzKQVRGJuLhbLNYTq7ICFNf7IaiV0YxtBkC4iIysCnTu3l1fD7WnsWHTYTjExiPCxlR9FR+7xYg6JS5eUsE3NOSqjme+3oyjtvpF26I51EpWsbpmSk6YiHkFFKc9EN/bIKf2FBQnNIhOkMO2sb5HyiG3N9W2Wb7oxHwnE4930bbG/vrzuHkmSX849VCknUJ9xQXklOsAVCHprbexy28aZt3mDHWaAtme3REf1HgVYQU3d1dYFeUip6axDw1qajQArODs4gQUnUeu4RVHtbkpyCzVAeo0KLK9ECsPhLW1O7y9bFCccwZVAKArxS8vvYqd/rPwzLgOhj7tENElGKV7l+DFbeH4z+IJ8LnqFS3Ons2Hna8fPGQAIIODsxOsqspQ2gCg8jCWz3sPCm0U4uX2jY2u0j6dAKjTkHbGGzFx/vqrxOa6WLnB3dUKRbk5aGpaA31TNdIU2fDsHo+mocSOb44lndRQpJ6GR/d4hBjdqEG9Ammn6lFxIQd6lybhrbd3wW/aLNzm3F79zftUnaZAtlcs5IHWsHb3hpdNMXLOVAEAdKW/4KVXd8J/1jO46lIDMgdnOFlVoUyvGA4vn4f3FFpExcthL6KX7BZ72FtV6tvpKpH8xhy8ndKArvI42AMQSktRrrOBjY2VwV7vI9VgLys3d7haFSG3SUFoampaPTWkq8iCIkevqHPnWIS73QK3Di6QtbE9AMCmMyLDgLT3H8JrFybgjef0V+eiMqj1xbh7fJA+xoQCKDLK9BMfyGDv5AhZZRnKGmNhzgocrY+EXO54DbnViIDS0nLobGygN9lyzHs/FdqoeMjtAbVCgdMeTXEiFCiQUaafFBtTr0jDqfoKXMgphz7k3sLbu/wwbdZtcDaVB6JyeorrKyq3+XhtXTes4e7tBZviHOjDVofSX17Cqzv9MeuZcWhhLdG8VUOh0MesXj8BBYoMlBlOni0Rk91CHMgc4OxkhaqyUujNshzz3lM0tTVCnZaGM94xiPO3tlhPrJxd4IQinG8yGlIyS6FrZTMAQilKy3WwsbGBlSF/309tzF9T9UV87BbI7OHkKENlWdlVHeesOIr6SDnkjhZyqJWsYnXNlJytY16brUCmOgoJcsMMUZmGtLwQyOUekBni2itWjkDr1m1b5Iuo7yzkt2jbq6L/+Rj//vaPRZvFV3o5suuAfgwNkXNAz1B6h43jyuM1JBuYubQXPcauZfMHEITS7XyquzvdO/fl8JFD2bNLZ4796By1JIXCbzk9wonuEf05bFAPRsQ9wm+LBP1iWI+xXGvoSLnvRSZ6ujOszzAO6R7AgJ6PcmN2yzUo1d9Mpru1ExMWJTetDSH1C+Re70sXtwj2HTKerx/WULj0FacEOdG/Rz8mxA7irEVTGRs9n78ZL2u5Bp0aUhexh+vt/FT/4IaRLgJLtz/F7u7u7Nx3OEcO7ckuncfyo3NasiGTS3t5cOza0mYLkEWON0JUp4YTXNrLg2PWlLRa3KzNeoW9HLtyQL9QhsgHsGeoN8PGreTxGl6T/qZ9qjHqR8l9LybS0z2MfYYNYfeAAPZ8dCONXKpHuMSvpgTRyb8H+yXEctCsRZwaG835v2lE9aJwiRvvDaKjbyz7xEez39RpHOIVxEd3GlZ+KrfxkTAHekclMj5mIGctmc64RnsJpdz+VHe6u3dm3+EjObRnF3Ye+xGNzd6Q9iaHBgZTPnQ4+3fxY6fRb/Jwddvb69HwyPMxtHOWc8Fe/SJYUryPhhMt84N1P3Kafzhn6x+ro1C0mQ+GONE3tg/jo/pw2oL7GB36KHeqjeOxbbnViHLbIwxz8GZUYjxjBs7ikulxjJ7/GzVs4AmjOKn7cRr9w2cbnvRrjpZZr/SiY9cB7BcaQvmAngz1DuO4lcepDzlTeSAup5i+FJXbXLwKJusGlfv4YqIn3cP6cNiQ7gwI6MlHN2aztbVE8tYQs0361fHHaf4Mn73HxNOZ4rKLx4HAS19NYZCTP3v0S2DsoFlcNDX2atuWNDB1UQ+63v4pDWVLvJ4Ihfx2egSd3CPYf9gg9oiI4yPfFlEwZTMque2RMDp4RzExPoYDZy3h9DhD/pqrL2Jjt0Bg0eYHGeLky9g+8YzqM40L7otm6KM79bYUySFT/jVf10zJ2TrmlV+Mp0ePhTzWuPZq/1OM8HuQ39UYx3Xrti3zRdx34vEu3vavworkjX4z1M1J9SbcHfoKwrYrsMgvE+lF9giXx8DP0gxVW4EcRRYKNI7w6xKNLj7NGtQWIlORg2qXTugeEwRnM/flhKoLyMjMR51bOHrEBuh/2mozNchPUSDfJgzxPQLgCECoPIeUk1fgE90doW7Gt1fagEmddCj59A5EftwbB46+jB5m7m5qK3KgyCqAxtEPXaK7oLk5TNHW469Fp+pNdyP0lTBsVyyCX2Y6iuzDIY/xg5khmjCpv4E2+VRA1YUMZObXwS28B2IDRDwqVOJcyklc8YlG91C3Zu9YsoChXaV3FKLL30TvocfxRM4OPNZRL5CuKhcpWUp4R8eZsJcWFTkKZBVo4OjXBdFdfEzaRFeTj4y0PGi8IhHX1afZi9za1l6ca+9DV5mD4yer2xQLbc8tHapyU5Cl9EZ0XCgsdGuGamy6OxSvhG2HYpEfMtOLYB8uR4zFIiIup7i+FuQ2G6+t6waEKlzIyER+nRvCe8RCLGzbmrfiWJBdFAGV51Jw8ooPoruLtNWV4NM7IvFx7wM4+nKPqz9pideTWhRmKpBT7YJO3WMQdNVoJmymq0JuShaU3tGIa2P+io/dHB0qc47jZLU5HcVyyISsYnXtT0Xcd+LxLt72r+BfM0mqT16AHnfkYuH5/+H+pp9mJQDoKs4hNfMw1s6djaPj9+HwkrhWazFuPuqRvKAH7shdiPP/u9+wruGfScXaMej0Vjf8krYcfYzXrkv8edQnY0GPO5C78Dz+JxWRvxgdKs6lIvPwWsydfRTj9x3Gkribv2pJ/P0weZ38T0RbY4ewiWPQx9ybjf/F1B5bh4UvbYDy9k+x8f/+DhMkANCixi4ME8f0MTw59k9FQJnghUF3j0KsNEH6a9HWwC5sIsZIReQmoBbH1i3ESxuUuP3Tjfg/aYIk8Qfxr7mTJCEhISEhISHRHv41d5IkJCQkJCQkJNqDNEmSkJCQkJCQkDCBNEmSkJCQkJCQkDCBNEmSaIVOXQlljdZ4s4SEhMRNgg7qSiWkMiXxRyNNkv4IVIU4daoAhne6NkOHqrwsnCkx+f7ia0J78j2M7/k4fqg23nMtKLF/6XCEBUdDHn0b3kw9gZ/Xf4+0Sp3xgX8ZNdvnoNeYt5F1kxZH1amfsf77NJg0mfYk3hvfE49fk7O0OPneePR8/AdcS+vrxkj2P07P5vzFOv8J3Nj8/Zeg3I+lw8MQHC1H9G1v4rRgfMDfgZs5tlU49fN6fJ9WCVPpfT38HeNdmiTdADRJy3HfrDVXk1Vz5DXcnvAQ1he3DDFd/lo80HM4Fu5Rtth+PSiTf8G+Wlf4tvxs2DVRf/RNPLVSwJyD53EhbzfmFL+Lxxd8iqTym+UByHpk7N+Fc3a+CLwZnvjVJGH5fbOw5mqVVuPA249jwadJMGkyZTJ+2VcL12tylhLJv+xDratvs5c+/om0kP2P1LM5f7HOfwI3JH9bxeE/mXocffMprBTm4OD5C8jbveDqx8DbxV9us3bE9p8tq/oA3n58AT5NKoep9L4ebki8/8n8SydJAlRlRShTGQddPSpLSlAldpdCo0RpZfM7QVqc/OUrbL+gRQcr/RbbiEiEIR/nzjXvqBp7l/0XhyLnYckkX/0mTSWKC8vQSoxGWo1loL4KJaXV0EKDtGMnYB0jh/GH5JujU1VAqW4+YdOgsrjQSH8B5/fsQ273cbi7i74z+9GrkVe6A0+GN69Cpto20baxTNEG2+suI1VRgM7x8mbvRmpDu6vcSL8D2pO/4KvtF6BtdDzsMXp1Hkp3PIkmk9WjqqQU1VpAk3YMJ6z1H7C8Sn0lSkqqYG7o+qoSlOob49gJa8OHT9uLJR9ooCytNPF9NnOy33g9m2NJZ01lMQrLVDCnTdsxp7cJdGooSytRb7wdAHQqVCjVLa+6NUoUmcvtduZvCwQVyopa9ts6DhvRQFkk5vdmXGstajfmbV5fWYIS0SQEIJzHnn256D7ubhjKFGCxbeu8N28zy7SqcX9wbJuXVTyvW8kJfRxXlDWXtR5VpRWobX6Y/WiszivFjifDjd4wfo2+sxDvom1vBoy/U/JPR5W5jjMTg+gbHMGQjgFMfHYnSbLuxBpO6+FND/9A+oWN4IuLHmD8Axv0+3bPZ59Jr/GzBSMZFRrADo7+HP3hSWq12XxvTBi9nW1o7ezNwKBITt9cQap/5owAF47/ovLquNqsZeznFsmn99eQDRe49flR7OIXwPBQb7oHj+Qbv1eLj6WXnhmfTWOcjwf9A/0YOvghToh2YOLrpw37m1G3k3N738VFy6Yw0llGp7HrWMEGXtj6PEd18WNAeCi93YM58o3fWa09z48nhNPHxZbWTl4MDB3OZenV/HVeTw5depT6z/mYadvesYzltGD7lgdu48P+AZz5s/5LUW1ud6P9Ti2z3xvDMG9n2lg70zswiJHTN5N1v3Jez6FcelRvMVXGZ5wW56PvO3QwH5oQTYfE13laS5J1PLFmGnt4630ZNuJFLnogng9sMHyBSpXBz6bF0cfDn4F+oRz80ARGOyTydX1jAwIvrZnM6HtWM6/xu0yVWzk7oS+fP6D/vpRZH9Tt5vw+k/jaZws4MiqUAR0c6T/6Q540dC8q+43UszkWdG64sJXPj+pCv4Bwhnq7M3jkGzSkTQuqtz5B+fDXqTB8h0qb8xEnxDzADaWCRb1boN7N+X3u4pIP5nJoZAgDvVzoP2IFFWqSrOPOub1516JlnBLpTJnTWK6rIKk5xy3zh7GTZ0eGhvrQzTeRs7fktSl/ReWmipnrZjIxyJfBESHsGJDIZ3eWmY5Danhuy3wO6+TJjqGh9HHzZeLsLcwzpeM116KWiMpuyeZ1J7hmWg96e/gz0C+MI15cxAfiG/VuQnv+Y04I96GLrTWdvAIZOnwZ06vF27bO+5/M2KyaW5+Qc/jrCkO90zLnowmMaawnJmvcHx3bZuqMaF6bkLNuN+f3mcxlnz/PkdGh9HN3ZueHN/N08rucktCZgV6O9Oj/Ko8aPsBX9+s89hy6lEcbLNcJcd+Jx7t425uHf9ckqXIXZ0d6sv+SZCpJ8ko6v9uaTqoOcUGsB3s9f5DlAqlMWsy+rjYMm7NP/zHBJQl0dAvliCX7WSqoeeDpCDoMeYd5gkBNxTY+EtKBEz8vpLKymmqBpDaHy/s7Ur44XZ9wQjE3TfZnwORNLBbqmLwwgd4J87ijQEuylGvHutFv+nbWiY5F1ux/hlHuPfncgXIKVDJpSX+62QRw5o7Wn5dsUCxinIML/fvO5tfpOcwtqGZd8kImeCdw3o4CakmWrh1LN7/p3F5HapS7OKeLG+/8JI/KKyo2NCi4qIcrR6/WJ7xY2/aO1QJR27ekIfNlJriM4KoioV3tbrzfSUFTwW2PhLDDxM9ZqKxktVpgg2IRe7iO5upSkjX7+UyUO3s+d8DQ9xL2d7NhwMwdVJNUHVrAWI9efP6gwZeL+9LVJoxz9qlJ1nD/M1F07/kcD+gbc0l/N9oEzKSxq1XfTqFn8GPcZdhevvFuegXO4PYaCz7LWMIERzeGjljC/aUC1QeeZoTDEL6jDzRR2W+cns2xoHNdMhcmeDNh3g7q02Ytx7r5cXqrgNIweUE3uo1dx3LDliub7qFH+BzuU1vQ24iGjJeYYO/EwFsXc3+pQO25FRzkFMLHd6vJBgUXxTnQxb8vZ3+dzpzcAlazmgcWdKdH/NP86VIDSRWPLYynfcQ8HtJYyl9xuSt3zWakZ38uSdZ/SPhK+nfcml5nMg6rDyxgd494Pv3TJTaQVB1byHj7CM47ZPyZ0GuvRS0Rl13c5ioeWhBLj17P86DB74v7utImTN+2JRoqd81hF7c7+UmekldUVeJtzeS9KZtRk8wF3dw4dt1VDbjpHg+GG+qJqRr3Z8S2KVlF89qEnHr7uzN05Es8eFlg9fdT6esSxC6DH+W35xvYkL6Ycod4LklvINlAxaIedB29mqW8Pt+Jx7t425uJm2qSpCo+x+zTp3n6dDbPFl4x3n2dCMxfNYru4bO5V9VyT+mGCfQMnMFtjVelmsN8NqoxYSq4fpwLXYe+Y7gy1hcE1zvXsoKkcOEdDnbqzddONb++quOP03zo9cB3rCNZl7SA0R0Gc8UpLYXidRznEcAp69KZlZbE7Z/O5cCOPhy75gIFsbGEUq6f4MHAGduu3o3RJC9gN+eR+kmDEeVrx9DZuT+XZRou7YRirhvnwYAp65ielcak7Z9y7sCO9Bm7hhcEUihexZEuci5OMxxfvpZj3GL5wrEGi23bO1ZzxG3fEuUX4+ne7Vkma9rT7o/xO4ULfGewE3u/durqlXX52jF0i32BxxoElq6fQI8WfSdzQTdnjlxVRIGl3DDBs6UvDz/LKLexXFdOCqXrOcEjkDOaGjN5QTc6j1xFY1c3pC+m3HkEPyoWSOECPxzhzm7/SaLagg8q1o+ji+tQvmO4ktUkL2A31zu5tsKS7DdOz+aI6yyweN04egRM4br0LKYlbeencweyo89YrjEOKKGY/9/evQdFdeUJHP/SNMpLQRQKNCgi0Mizb4MgkviMGpM1EWdrzSY1OuoaU0moitZO3Nk10dRmkll3nMomU+uYTMXaWIkhVUlZ2Zlap5yQUuMsD5tuGxoBsXFaeQiGR0AeTXff/aMbge7mtvgKtTmf/7Tu797fOb9zzj1cbtNH1s2QpTeM7icCQ3LZa2m3b+ATt3v8aWRZlruOF8kzI1fL/1HvrvDASXlrdKT87Oe3XPMjPFwu/FW1+zqy7LAekddHLpJf/np0oA2c3CpHh2+WP+n1M3+V8nZY5SPrI+VFr5TKHkPYexyOHPvy16PHDpyUt0aHy5s/GR9912vRuLPcY5+3H5eLZo+v+9jY8Rxy25F18gzpDdk47C924nnv1Weyj/XPYz3xWuMe1tj2zNXPvPbO07v/B//nH+R501LlPWf6ZFmWZXvtL+W8sEflX1vssix/J3+0MULO/OdKedhH7B3Xzt/9SinW/T9TxdR5J8lppeS1v2PLli1s2bKFn/37Gc8j7lEvZ0+XE7JiPQWhY/9/kPLSMuTCdax0v+jibCun0pqIVpoJtmr0ZjVrdmxFE+g6j7m2mQVZmcwAbBeN1Edmol049re3QSQnJzBw9QotNgu/P3AMdr7Fi6mB9J85xdkBO/p3t7Ptpf0cPadi04dn+XTHAlRK1xo8z5+/hcJ1K93v4zi5UXkBa7wWbZRnGYcwVZkJWrubXRnuN5z7z3Dq7AB2/bts3/YS+4+eQ7XpQ85+uoMFKhg2GrgUko422XX8kKkKc1AG0mK1n9jJX2uUn74fx4ZJbyYwU0f6tMnEPZi6Y7uIsT6STO1C9+/t3f2QIbFYPch5V7FGz32jkgvWeLTaKFSD5ZSWyeNq2VZeiTVRizQTBs//mW8pZN1oMJUXrMRrtXiWWp2YSqL6r1y+bGew/D85ol/Cyy/lM12xBjaq9WbUa3aw1dU4es21NC/IInOGn9zvYzvHUm5zP2dOnWXArufd7dt4af9Rzqk28eHZT9kxfkDBsIGqS6FkSMmu7yB0dlCpv0aiVmImSu0efxqwUVNlJnDVdn6a4jrW2dVMS38McXFq9/xYy+5dGbe/6/DWudOUh65gw7LRgXbr5k0GomKIGfYzf5Xy7j3L6fIQVqwvcH3b+1ie4/DWOU6Xh7Jiw7LRY2/d5OZAFDEx498wueu1aNxZ7q3PB8tLKZPH1r2N8kqrO9bTMEbDJULStSSr/cVONO999BkwbKjiUmgGknv9c3ZUor82sp74WOMe1tj2zFVxXvvI06v/HbSY6+nK/Ht2LAtz5WeuwRKVRsbcQBgyUWUOIkNajNordhK183O/Uox1Zz5VeN5dfziq+Wz/rwsYjEaMRgPf/uZvPI+4N44OmttsxMXPH/8Frs5Omq72EJuQ4H6Bzk79iRIqQjPRJatxtlVhakslf6n7W7+HjFSZg0jXLkaNnSsXa+jTaNEGjT1pIAs0iQRfa8T4h7c5XL+egz9fRigOWpqsDGUWc1Kvp/J8KV99fJi9GzWEgeK1VF3XuH4rloQF7jfe7A189nkFQb5e+nS2YjDdIDW/gJHvKne0NGEdyqT4pB595XlKv/qYw3s3ogkDcHDdZKZTo0U7HcBJq8HEDY2EFOwndtLXGsNP348/tg3DxVZSdBKhk4l7IHUH+5WL1PRp0I4U3t0PGkki2NnFteu3iE1YcPvcDZ99TkWQ62VmZ2cTV3tiSUgYqWU9J0oqCM3Ukax20nXtOrdiExgt9Wd8XhHk9ZInAMHJaOLbuNJQy+8PHCNg5wG2LwxUroGzjSpTG6n5S901G8JYZSYoXctilXLu96+do00AP212tNBkHSKz+CR6fSXnS7/i48N72eg1oMBxzYS5M4msLNfHZ+x1xzlRFkKmLhm1Urs9hg3OmxgvtqDJy7u9aHd/8w3GmQWs0Kpd8yM1n4KRQY+DjpYb2ObMZe7tc3VR+nUVIUtXIvUrz1+lvAM6mmmzxRE/3zNJ73Ho6Gjhhm0Oc0eToKv0a6pClrIyZ+xHiu5+LfLMQil35T530tl0lZ7YBEaHyAlKKkJdsWMvAuC4jsnciUarZTp+Yiea9z76DBxcM5npTMrC1QQ7dcdPUBbiXk98rHEPa2x75qo8r73z9DXXDYY6onR57jztXDLUMJSegxQEzlYDphsaJCnYZ+yd1k75fqUc61mvH9rU2SQ9aAHhzAiD1iaL++8X9WPRV9NOCOFhAfR0tDMMdJcdYs97BuxpOqRgGDQYqIvKQhfv2kk7mg2YOtyDCDuXL1uZFhvn9RP+tOQU5reXcuBf/ptF//gGRTEqIICIyJkEtFpo7Bs5coi+PtfnBZSupQoOI1TVTUfHMNBN2aFiDlfY0EiS90+Xg0YM9bPJ0sXf/kkpICKSmQGtWEYvzFBfn/uTCoMYjQ1EZ2iZG+j+t6GeOZkSjwT6iZ30tcZQKff9OIMGquqiyNItIHAycQ+k7mC/fBnrtFjiRgo/aMRQP4dM6RECVcGEharo7ui4fe7iwxXYNBJSKKhCwgkL6KGjfaSWe3jPYCdNJxGMiuCwUFTdHbhKXcah4sNU2DRIklelQZ2EJhGM7/+MX14t4p1/cj1tUKzBoAFDXdRozRzNGEwdro2Pn9zvXzvH8tPmgAgiZwbQamlkdNr04Z424zja2/nOqUatDnCdZ8/7VNnT0LmKOnG7PU9kM2C8ZKPzaiPfOYGe8/z6N6eJ27abJ8Jd82N2lg738AACiYyeg7qtkYYeACftfzrIW6fmsnvvM8z2M3+V8g4In0EYrTRZ3H95rd+Cvrodp49xGBgZzRx1G42uJHC2/4mDb51i7u69PDNrJFfuaS3ypJS7cp+rCAkPI6CnA9cQKePQnvcwjMR6GjRibIgmQzuXQH+xE817p3efgYP29u9wqtW4mnCIPe9Xja4nPta4hzW2PXNVntfeeXr1v70eQ/UgaTkSrm1XF0bjX1kgSUSpYNBooH5OJtIjgd6xk6id8v1KOXaq+fFsklQxbHrhWcK/2M6SR9ewQqvlJ0frcRLBuueeRlWym8LCXJbvs5L3eBJJObnEquw0mS5h0+bfflI0XFODJVZHbnwgoGbR4iSG//gLVq8q4p3y0Q8IqxelkzLdQlPYbt56IcU9aFVEby5m56wv2Zq7jLXrV7NEk8Hzx5tx4Odas55kW1EQJbsKKMgpZE+DxJrkeWTrEjw+pgl2SzV1w1ryxzzeUkVvpnjnLL7cmsuytetZvURDxvPHaXa4dvkXzUMslrJcf7PDbqG6bpjsvGyC/MRO+lrjKPX9+CPtTSYu2bLJyw6aVNyDqTuoFy0mafiP/GL1KoreKaffUk3d8Eh+s3hyWxFBJbsoKMihcE8D0ppk5mXrSAgEItbx3NMqSnYXUpi7nH3WPB5PSiInNxYVMOvJbRQFlbCroICcwj00SGtInpeNLsGz0gChpKbNp61RxU+P/htPuRdTpRq4+nJMzYZrqLHEosuNJ9BP7q563592jqXYZlU0m4t3MuvLreQuW8v61UvQZDzPce8BxbS0lSyPq+DtDcvIeew1rAVPkJqUQ26syk+7x3NYDJh6Eompfpm83MdYoi2i5JE3Oba/gOnu+aHN17pvNC5Rz7xK8cLTvJhXwJpVErqdf2Hpb0/wen6w3/mrlLcqZhMvPBvOF9uX8OiaFWi1P+Fovesz257j0Bb1DK8WL+T0i3kUrFmFpNvJX5b+lhOv53vdvO96LfKglLu/Po9Y9xxPq0rYXVhI7vJ9WPMeJ8kd68necBHz0GIk9xMrxdgJ572PPmMaaSuXE1fxNhuW5fDYa1YKnki9vZ74WuMe1tj2zNWuNK995OnV/3011FxPJC9ntitPWy3Vl8OQlqShxo6luo7h7Dyyg3zETqZ2fsa7YuwUEyDL8v3+e1FTWn9LNYbGXmYszCIjPtw9oB10X9FT+30M6VkJRHivAwr6sOoNWNWJ6LLneT/V8cXeSaPBTPNQKHEp6aTE3OHu2dlN44VaemPSyUqI8FrY/bPT2WjA3DxEaFwK6SkxBAPOGx/wlOZ35J2p4M3siR52+o6d2J0ef7d9P7m4+1936LPqMVjVJOqymedVeCfdjReo7Z3g3I5uruhr+X6CWjq7G7lQ20tMehYJXsF36k5r4MlP7uP4OdZPO8fy12Z7ZyMGczNDoXGkpKcw0bRx9ljQm7uITtf6PM+d6D3xtyT8ayJ/MLxOXPVFWoMXIWXE+e8/Rw9XTdVYByJYlJ3JvLG/EfQzf5Xz7qel2kBj7wwWZmUQHz56M/Eehw56rpqotg4QsSibzHFJeLjbtciDcu7KHN1X0Nd+P2HdXZzc+OApNL/L40zFm4wsU/5ifc97X33mpMeix9wVTbrWxzj25SGNbe9c73Ze33+K/e9nvCvGTiE/uk2SMIazkytV1ZR99CqvVGzim7IDaCfaIwnCj4aN//15Nk9Z9tP0xfOj73cIPwhn5xWqqsv46NVXqNj0DWUHtFPuvRXh/6+p92xLeHj6Kzm2/yDHuzbwwSf7xAZJEACw0zctkc0bl475y+7CD6W/8hj7Dx6na8MHfLJPbJCEh0s8SRIEQRAEQfBBPEkSBEEQBEHwQWySBEEQBEEQfBCbJEEQBEEQBB/EJkkQBEEQBMEHsUkSBEEQBEHwQWySBEEQBEEQfBCbJEEQBEEQBB/EJkkQBEEQBMEHsUkSBEEQBEHwQWySBEEQBEEQfBCbJEEQBEEQBB/EJkkQBEEQBMEHsUkSBEEQBEHwQWySBEEQBEEQfBCbJEEQBEEQBB/+D6Snt2E3kU2kAAAAAElFTkSuQmCC;" vertex="1" parent="1">
          <mxGeometry x="20" y="20" width="585" height="144" as="geometry" />
        </mxCell>
        <mxCell id="FsGZO4-EiAuaFuLzNBgR-2" value="Ventas = {nroFact,codProd,nomProd,precioActual,precioVta,cantVend}" style="text;html=1;align=center;verticalAlign=middle;resizable=0;points=[];autosize=1;strokeColor=none;fillColor=none;" vertex="1" parent="1">
          <mxGeometry x="30" y="200" width="400" height="30" as="geometry" />
        </mxCell>
        <mxCell id="FsGZO4-EiAuaFuLzNBgR-3" value="A)" style="text;html=1;align=center;verticalAlign=middle;resizable=0;points=[];autosize=1;strokeColor=none;fillColor=none;" vertex="1" parent="1">
          <mxGeometry x="30" y="238" width="40" height="30" as="geometry" />
        </mxCell>
        <mxCell id="FsGZO4-EiAuaFuLzNBgR-4" value="Claves candidatas = {nroFact,codProd}" style="text;html=1;align=center;verticalAlign=middle;resizable=0;points=[];autosize=1;strokeColor=none;fillColor=none;" vertex="1" parent="1">
          <mxGeometry x="60" y="260" width="230" height="30" as="geometry" />
        </mxCell>
        <mxCell id="FsGZO4-EiAuaFuLzNBgR-5" value="Atributos no primos = {nomProd,precioActual,precioVta,cantVend}" style="text;html=1;align=center;verticalAlign=middle;resizable=0;points=[];autosize=1;strokeColor=none;fillColor=none;" vertex="1" parent="1">
          <mxGeometry x="60" y="290" width="370" height="30" as="geometry" />
        </mxCell>
        <mxCell id="FsGZO4-EiAuaFuLzNBgR-6" value="DF1" style="text;html=1;align=center;verticalAlign=middle;resizable=0;points=[];autosize=1;strokeColor=none;fillColor=none;" vertex="1" parent="1">
          <mxGeometry x="9" y="330" width="50" height="30" as="geometry" />
        </mxCell>
        <mxCell id="FsGZO4-EiAuaFuLzNBgR-7" value="Ventas = {nroFact,codProd,nomProd,precioActual,precioVta,cantVend}" style="text;html=1;align=center;verticalAlign=middle;resizable=0;points=[];autosize=1;strokeColor=none;fillColor=none;" vertex="1" parent="1">
          <mxGeometry x="14" y="360" width="400" height="30" as="geometry" />
        </mxCell>
        <mxCell id="FsGZO4-EiAuaFuLzNBgR-8" value="Ventas = {nroFact,codProd,nomProd,precioActual,precioVta,cantVend}" style="text;html=1;align=center;verticalAlign=middle;resizable=0;points=[];autosize=1;strokeColor=none;fillColor=none;" vertex="1" parent="1">
          <mxGeometry x="414" y="360" width="400" height="30" as="geometry" />
        </mxCell>
        <mxCell id="FsGZO4-EiAuaFuLzNBgR-9" value="" style="endArrow=classic;html=1;rounded=0;" edge="1" parent="1">
          <mxGeometry width="50" height="50" relative="1" as="geometry">
            <mxPoint x="134" y="400" as="sourcePoint" />
            <mxPoint x="204" y="390" as="targetPoint" />
            <Array as="points">
              <mxPoint x="134" y="410" />
              <mxPoint x="204" y="410" />
            </Array>
          </mxGeometry>
        </mxCell>
        <mxCell id="FsGZO4-EiAuaFuLzNBgR-10" value="" style="endArrow=classic;html=1;rounded=0;" edge="1" parent="1">
          <mxGeometry width="50" height="50" relative="1" as="geometry">
            <mxPoint x="194" y="410" as="sourcePoint" />
            <mxPoint x="264" y="390" as="targetPoint" />
            <Array as="points">
              <mxPoint x="264" y="410" />
            </Array>
          </mxGeometry>
        </mxCell>
        <mxCell id="FsGZO4-EiAuaFuLzNBgR-11" value="" style="endArrow=none;html=1;rounded=0;" edge="1" parent="1">
          <mxGeometry width="50" height="50" relative="1" as="geometry">
            <mxPoint x="494" y="390" as="sourcePoint" />
            <mxPoint x="554" y="390" as="targetPoint" />
            <Array as="points">
              <mxPoint x="494" y="400" />
              <mxPoint x="554" y="400" />
            </Array>
          </mxGeometry>
        </mxCell>
        <mxCell id="FsGZO4-EiAuaFuLzNBgR-12" value="" style="endArrow=classic;html=1;rounded=0;" edge="1" parent="1">
          <mxGeometry width="50" height="50" relative="1" as="geometry">
            <mxPoint x="524" y="400" as="sourcePoint" />
            <mxPoint x="714" y="400" as="targetPoint" />
            <Array as="points">
              <mxPoint x="524" y="420" />
              <mxPoint x="714" y="420" />
            </Array>
          </mxGeometry>
        </mxCell>
        <mxCell id="FsGZO4-EiAuaFuLzNBgR-13" value="" style="endArrow=classic;html=1;rounded=0;" edge="1" parent="1">
          <mxGeometry width="50" height="50" relative="1" as="geometry">
            <mxPoint x="564" y="420" as="sourcePoint" />
            <mxPoint x="784" y="400" as="targetPoint" />
            <Array as="points">
              <mxPoint x="594" y="420" />
              <mxPoint x="784" y="420" />
            </Array>
          </mxGeometry>
        </mxCell>
        <mxCell id="FsGZO4-EiAuaFuLzNBgR-14" value="codProd----&amp;gt;nomProd,precioActual" style="text;html=1;align=center;verticalAlign=middle;resizable=0;points=[];autosize=1;strokeColor=none;fillColor=none;" vertex="1" parent="1">
          <mxGeometry x="14" y="418" width="210" height="30" as="geometry" />
        </mxCell>
        <mxCell id="FsGZO4-EiAuaFuLzNBgR-15" value="nroFact+codProd----&amp;gt;precioVta,cantVend" style="text;html=1;align=center;verticalAlign=middle;resizable=0;points=[];autosize=1;strokeColor=none;fillColor=none;" vertex="1" parent="1">
          <mxGeometry x="424" y="420" width="240" height="30" as="geometry" />
        </mxCell>
        <mxCell id="FsGZO4-EiAuaFuLzNBgR-16" value="B)" style="text;html=1;align=center;verticalAlign=middle;resizable=0;points=[];autosize=1;strokeColor=none;fillColor=none;" vertex="1" parent="1">
          <mxGeometry x="20" y="510" width="40" height="30" as="geometry" />
        </mxCell>
        <mxCell id="FsGZO4-EiAuaFuLzNBgR-17" value="DF2" style="text;html=1;align=center;verticalAlign=middle;resizable=0;points=[];autosize=1;strokeColor=none;fillColor=none;" vertex="1" parent="1">
          <mxGeometry x="420" y="330" width="50" height="30" as="geometry" />
        </mxCell>
        <mxCell id="FsGZO4-EiAuaFuLzNBgR-19" value="2FN" style="text;html=1;align=center;verticalAlign=middle;resizable=0;points=[];autosize=1;strokeColor=none;fillColor=none;" vertex="1" parent="1">
          <mxGeometry x="125" y="570" width="50" height="30" as="geometry" />
        </mxCell>
        <mxCell id="FsGZO4-EiAuaFuLzNBgR-20" value="Ventas1 ={&lt;u&gt;codProd,&lt;/u&gt;nomProd,precioActual}" style="text;html=1;align=center;verticalAlign=middle;resizable=0;points=[];autosize=1;strokeColor=none;fillColor=none;" vertex="1" parent="1">
          <mxGeometry x="110" y="600" width="250" height="30" as="geometry" />
        </mxCell>
        <mxCell id="FsGZO4-EiAuaFuLzNBgR-21" value="Ventas2 = {&lt;u&gt;nroFact&lt;/u&gt;,&lt;u&gt;codProd,&lt;/u&gt;precioVta,cantVend}" style="text;html=1;align=center;verticalAlign=middle;resizable=0;points=[];autosize=1;strokeColor=none;fillColor=none;" vertex="1" parent="1">
          <mxGeometry x="110" y="627" width="280" height="30" as="geometry" />
        </mxCell>
        <mxCell id="FsGZO4-EiAuaFuLzNBgR-23" value="Como los atributos no primos&amp;nbsp;&lt;div&gt;no son mutuamente independientes&lt;br&gt;tambien se cumple que esta en 3FN&lt;/div&gt;" style="text;html=1;align=center;verticalAlign=middle;resizable=0;points=[];autosize=1;strokeColor=none;fillColor=none;" vertex="1" parent="1">
          <mxGeometry x="104" y="672" width="220" height="60" as="geometry" />
        </mxCell>
        <mxCell id="FsGZO4-EiAuaFuLzNBgR-24" value="Todos los determinantes son claves candidatas,&lt;div&gt;por tanto, estan en BCFN&lt;/div&gt;" style="text;html=1;align=center;verticalAlign=middle;resizable=0;points=[];autosize=1;strokeColor=none;fillColor=none;" vertex="1" parent="1">
          <mxGeometry x="360" y="682" width="280" height="40" as="geometry" />
        </mxCell>
        <mxCell id="FsGZO4-EiAuaFuLzNBgR-25" value="Ventas = {nroFact,codProd,nomProd,precioActual,precioVta,cantVend}" style="text;html=1;align=center;verticalAlign=middle;resizable=0;points=[];autosize=1;strokeColor=none;fillColor=none;" vertex="1" parent="1">
          <mxGeometry x="80" y="520" width="400" height="30" as="geometry" />
        </mxCell>
        <mxCell id="FsGZO4-EiAuaFuLzNBgR-26" value="1FN" style="text;html=1;align=center;verticalAlign=middle;resizable=0;points=[];autosize=1;strokeColor=none;fillColor=none;" vertex="1" parent="1">
          <mxGeometry x="80" y="490" width="50" height="30" as="geometry" />
        </mxCell>
      </root>
    </mxGraphModel>
  </diagram>
</mxfile>
